<mxfile modified="2023-11-13T02:49:44.127Z" host="Electron" agent="Mozilla/5.0 (Windows NT 10.0; Win64; x64) AppleWebKit/537.36 (KHTML, like Gecko) draw.io/22.0.3 Chrome/114.0.5735.289 Electron/25.8.4 Safari/537.36" etag="k3RuoA8mmXFs84THIFgh" version="22.0.3" type="device">
  <diagram id="Ht1M8jgEwFfnCIfOTk4-" name="Page-1">
    <mxGraphModel dx="2876" dy="1194" grid="1" gridSize="10" guides="0" tooltips="1" connect="0" arrows="0" fold="1" page="1" pageScale="1" pageWidth="827" pageHeight="1169" math="0" shadow="0">
      <root>
        <mxCell id="0" />
        <mxCell id="1" parent="0" />
        <mxCell id="blCzUI5lSqkDewgXkmDC-75" value="Availability Zone" style="fillColor=none;strokeColor=#147EBA;dashed=1;verticalAlign=top;fontStyle=0;fontColor=#147EBA;whiteSpace=wrap;html=1;" parent="1" vertex="1">
          <mxGeometry x="290" y="260" width="810" height="240" as="geometry" />
        </mxCell>
        <mxCell id="hVgs-TnHQnnGqFTXmJPU-1" value="ALB Security group" style="fillColor=none;strokeColor=#DD3522;verticalAlign=top;fontStyle=0;fontColor=#DD3522;whiteSpace=wrap;html=1;" parent="1" vertex="1">
          <mxGeometry x="170" y="580" width="120" height="130" as="geometry" />
        </mxCell>
        <mxCell id="-QjtrjUzRDEMRZ5MF8oH-47" value="Wordpress Architecture" style="text;html=1;resizable=0;points=[];autosize=1;align=left;verticalAlign=top;spacingTop=-4;fontSize=30;fontStyle=1" parent="1" vertex="1">
          <mxGeometry x="12" y="65.5" width="360" height="40" as="geometry" />
        </mxCell>
        <mxCell id="-QjtrjUzRDEMRZ5MF8oH-48" value="HuyNG14" style="text;html=1;resizable=0;points=[];autosize=1;align=left;verticalAlign=top;spacingTop=-4;fontSize=16" parent="1" vertex="1">
          <mxGeometry x="12" y="115.5" width="90" height="30" as="geometry" />
        </mxCell>
        <mxCell id="SCVMTBWpLvtzJIhz15lM-1" value="" style="line;strokeWidth=2;html=1;fontSize=14;" parent="1" vertex="1">
          <mxGeometry x="8" y="140.5" width="1060" height="10" as="geometry" />
        </mxCell>
        <mxCell id="blCzUI5lSqkDewgXkmDC-1" value="Region" style="points=[[0,0],[0.25,0],[0.5,0],[0.75,0],[1,0],[1,0.25],[1,0.5],[1,0.75],[1,1],[0.75,1],[0.5,1],[0.25,1],[0,1],[0,0.75],[0,0.5],[0,0.25]];outlineConnect=0;gradientColor=none;html=1;whiteSpace=wrap;fontSize=12;fontStyle=0;container=0;pointerEvents=0;collapsible=0;recursiveResize=0;shape=mxgraph.aws4.group;grIcon=mxgraph.aws4.group_region;strokeColor=#147EBA;fillColor=none;verticalAlign=top;align=left;spacingLeft=30;fontColor=#147EBA;" parent="1" vertex="1">
          <mxGeometry x="-100" y="190" width="1390" height="1060" as="geometry" />
        </mxCell>
        <mxCell id="blCzUI5lSqkDewgXkmDC-51" value="" style="sketch=0;outlineConnect=0;fontColor=#232F3E;gradientColor=none;fillColor=#ED7100;strokeColor=none;dashed=0;verticalLabelPosition=bottom;verticalAlign=top;align=center;html=1;fontSize=12;fontStyle=0;aspect=fixed;pointerEvents=1;shape=mxgraph.aws4.auto_scaling2;" parent="1" vertex="1">
          <mxGeometry x="750" y="330" width="40" height="40" as="geometry" />
        </mxCell>
        <mxCell id="blCzUI5lSqkDewgXkmDC-2" value="VPC" style="points=[[0,0],[0.25,0],[0.5,0],[0.75,0],[1,0],[1,0.25],[1,0.5],[1,0.75],[1,1],[0.75,1],[0.5,1],[0.25,1],[0,1],[0,0.75],[0,0.5],[0,0.25]];outlineConnect=0;gradientColor=none;html=1;whiteSpace=wrap;fontSize=12;fontStyle=0;container=0;pointerEvents=0;collapsible=0;recursiveResize=0;shape=mxgraph.aws4.group;grIcon=mxgraph.aws4.group_vpc;strokeColor=#248814;fillColor=none;verticalAlign=top;align=left;spacingLeft=30;fontColor=#AAB7B8;dashed=0;" parent="1" vertex="1">
          <mxGeometry x="60" y="225" width="1160" height="835" as="geometry" />
        </mxCell>
        <mxCell id="blCzUI5lSqkDewgXkmDC-16" value="Private subnet" style="points=[[0,0],[0.25,0],[0.5,0],[0.75,0],[1,0],[1,0.25],[1,0.5],[1,0.75],[1,1],[0.75,1],[0.5,1],[0.25,1],[0,1],[0,0.75],[0,0.5],[0,0.25]];outlineConnect=0;gradientColor=none;html=1;whiteSpace=wrap;fontSize=12;fontStyle=0;container=1;pointerEvents=0;collapsible=0;recursiveResize=0;shape=mxgraph.aws4.group;grIcon=mxgraph.aws4.group_security_group;grStroke=0;strokeColor=#147EBA;fillColor=#E6F2F8;verticalAlign=top;align=left;spacingLeft=30;fontColor=#147EBA;dashed=0;" parent="1" vertex="1">
          <mxGeometry x="580" y="290" width="240" height="196.25" as="geometry" />
        </mxCell>
        <mxCell id="blCzUI5lSqkDewgXkmDC-17" value="&lt;font style=&quot;font-size: 13px;&quot;&gt;&lt;span style=&quot;&quot;&gt;Wordpress&lt;br style=&quot;&quot;&gt;Instance&lt;/span&gt;&lt;/font&gt;" style="sketch=0;outlineConnect=0;fontColor=#232F3E;gradientColor=none;fillColor=#ED7100;strokeColor=none;dashed=0;verticalLabelPosition=bottom;verticalAlign=top;align=center;html=1;fontSize=14;fontStyle=0;aspect=fixed;pointerEvents=1;shape=mxgraph.aws4.instance2;direction=south;" parent="blCzUI5lSqkDewgXkmDC-16" vertex="1">
          <mxGeometry x="90" y="65" width="55" height="55" as="geometry" />
        </mxCell>
        <mxCell id="blCzUI5lSqkDewgXkmDC-18" value="DB Private subnet" style="points=[[0,0],[0.25,0],[0.5,0],[0.75,0],[1,0],[1,0.25],[1,0.5],[1,0.75],[1,1],[0.75,1],[0.5,1],[0.25,1],[0,1],[0,0.75],[0,0.5],[0,0.25]];outlineConnect=0;gradientColor=none;html=1;whiteSpace=wrap;fontSize=12;fontStyle=0;container=1;pointerEvents=0;collapsible=0;recursiveResize=0;shape=mxgraph.aws4.group;grIcon=mxgraph.aws4.group_security_group;grStroke=0;strokeColor=#147EBA;fillColor=#E6F2F8;verticalAlign=top;align=left;spacingLeft=30;fontColor=#147EBA;dashed=0;" parent="1" vertex="1">
          <mxGeometry x="890" y="290" width="200" height="200" as="geometry" />
        </mxCell>
        <mxCell id="blCzUI5lSqkDewgXkmDC-20" value="DB Private subnet" style="points=[[0,0],[0.25,0],[0.5,0],[0.75,0],[1,0],[1,0.25],[1,0.5],[1,0.75],[1,1],[0.75,1],[0.5,1],[0.25,1],[0,1],[0,0.75],[0,0.5],[0,0.25]];outlineConnect=0;gradientColor=none;html=1;whiteSpace=wrap;fontSize=12;fontStyle=0;container=1;pointerEvents=0;collapsible=0;recursiveResize=0;shape=mxgraph.aws4.group;grIcon=mxgraph.aws4.group_security_group;grStroke=0;strokeColor=#147EBA;fillColor=#E6F2F8;verticalAlign=top;align=left;spacingLeft=30;fontColor=#147EBA;dashed=0;" parent="1" vertex="1">
          <mxGeometry x="890" y="540" width="200" height="200" as="geometry" />
        </mxCell>
        <mxCell id="blCzUI5lSqkDewgXkmDC-22" value="&lt;font style=&quot;font-size: 14px;&quot;&gt;Master&lt;/font&gt;" style="sketch=0;outlineConnect=0;fontColor=#232F3E;gradientColor=none;fillColor=#C925D1;strokeColor=none;dashed=0;verticalLabelPosition=bottom;verticalAlign=top;align=center;html=1;fontSize=12;fontStyle=0;aspect=fixed;pointerEvents=1;shape=mxgraph.aws4.rds_instance;" parent="blCzUI5lSqkDewgXkmDC-20" vertex="1">
          <mxGeometry x="70" y="80" width="60.25" height="60.25" as="geometry" />
        </mxCell>
        <mxCell id="blCzUI5lSqkDewgXkmDC-21" value="DB Private subnet" style="points=[[0,0],[0.25,0],[0.5,0],[0.75,0],[1,0],[1,0.25],[1,0.5],[1,0.75],[1,1],[0.75,1],[0.5,1],[0.25,1],[0,1],[0,0.75],[0,0.5],[0,0.25]];outlineConnect=0;gradientColor=none;html=1;whiteSpace=wrap;fontSize=12;fontStyle=0;container=1;pointerEvents=0;collapsible=0;recursiveResize=0;shape=mxgraph.aws4.group;grIcon=mxgraph.aws4.group_security_group;grStroke=0;strokeColor=#147EBA;fillColor=#E6F2F8;verticalAlign=top;align=left;spacingLeft=30;fontColor=#147EBA;dashed=0;" parent="1" vertex="1">
          <mxGeometry x="890" y="790" width="200" height="200" as="geometry" />
        </mxCell>
        <mxCell id="blCzUI5lSqkDewgXkmDC-37" value="Public subnet" style="points=[[0,0],[0.25,0],[0.5,0],[0.75,0],[1,0],[1,0.25],[1,0.5],[1,0.75],[1,1],[0.75,1],[0.5,1],[0.25,1],[0,1],[0,0.75],[0,0.5],[0,0.25]];outlineConnect=0;gradientColor=none;html=1;whiteSpace=wrap;fontSize=12;fontStyle=0;container=1;pointerEvents=0;collapsible=0;recursiveResize=0;shape=mxgraph.aws4.group;grIcon=mxgraph.aws4.group_security_group;grStroke=0;strokeColor=#248814;fillColor=#E9F3E6;verticalAlign=top;align=left;spacingLeft=30;fontColor=#248814;dashed=0;" parent="1" vertex="1">
          <mxGeometry x="300" y="290" width="220" height="195" as="geometry" />
        </mxCell>
        <mxCell id="blCzUI5lSqkDewgXkmDC-46" value="Private subnet" style="points=[[0,0],[0.25,0],[0.5,0],[0.75,0],[1,0],[1,0.25],[1,0.5],[1,0.75],[1,1],[0.75,1],[0.5,1],[0.25,1],[0,1],[0,0.75],[0,0.5],[0,0.25]];outlineConnect=0;gradientColor=none;html=1;whiteSpace=wrap;fontSize=12;fontStyle=0;container=1;pointerEvents=0;collapsible=0;recursiveResize=0;shape=mxgraph.aws4.group;grIcon=mxgraph.aws4.group_security_group;grStroke=0;strokeColor=#147EBA;fillColor=#E6F2F8;verticalAlign=top;align=left;spacingLeft=30;fontColor=#147EBA;dashed=0;" parent="1" vertex="1">
          <mxGeometry x="580" y="540" width="240" height="196.25" as="geometry" />
        </mxCell>
        <mxCell id="blCzUI5lSqkDewgXkmDC-47" value="&lt;font style=&quot;font-size: 13px;&quot;&gt;&lt;span style=&quot;&quot;&gt;Wordpress&lt;br style=&quot;&quot;&gt;Instance&lt;/span&gt;&lt;/font&gt;" style="sketch=0;outlineConnect=0;fontColor=#232F3E;gradientColor=none;fillColor=#ED7100;strokeColor=none;dashed=0;verticalLabelPosition=bottom;verticalAlign=top;align=center;html=1;fontSize=14;fontStyle=0;aspect=fixed;pointerEvents=1;shape=mxgraph.aws4.instance2;direction=south;" parent="blCzUI5lSqkDewgXkmDC-46" vertex="1">
          <mxGeometry x="90" y="80" width="55" height="55" as="geometry" />
        </mxCell>
        <mxCell id="blCzUI5lSqkDewgXkmDC-48" value="Private subnet" style="points=[[0,0],[0.25,0],[0.5,0],[0.75,0],[1,0],[1,0.25],[1,0.5],[1,0.75],[1,1],[0.75,1],[0.5,1],[0.25,1],[0,1],[0,0.75],[0,0.5],[0,0.25]];outlineConnect=0;gradientColor=none;html=1;whiteSpace=wrap;fontSize=12;fontStyle=0;container=1;pointerEvents=0;collapsible=0;recursiveResize=0;shape=mxgraph.aws4.group;grIcon=mxgraph.aws4.group_security_group;grStroke=0;strokeColor=#147EBA;fillColor=#E6F2F8;verticalAlign=top;align=left;spacingLeft=30;fontColor=#147EBA;dashed=0;" parent="1" vertex="1">
          <mxGeometry x="580" y="790" width="240" height="196.25" as="geometry" />
        </mxCell>
        <mxCell id="blCzUI5lSqkDewgXkmDC-49" value="&lt;font style=&quot;font-size: 13px;&quot;&gt;&lt;span style=&quot;&quot;&gt;Wordpress&lt;br style=&quot;&quot;&gt;Instance&lt;/span&gt;&lt;/font&gt;" style="sketch=0;outlineConnect=0;fontColor=#232F3E;gradientColor=none;fillColor=#ED7100;strokeColor=none;dashed=0;verticalLabelPosition=bottom;verticalAlign=top;align=center;html=1;fontSize=14;fontStyle=0;aspect=fixed;pointerEvents=1;shape=mxgraph.aws4.instance2;direction=south;" parent="blCzUI5lSqkDewgXkmDC-48" vertex="1">
          <mxGeometry x="90" y="70" width="55" height="55" as="geometry" />
        </mxCell>
        <mxCell id="blCzUI5lSqkDewgXkmDC-54" value="Public subnet" style="points=[[0,0],[0.25,0],[0.5,0],[0.75,0],[1,0],[1,0.25],[1,0.5],[1,0.75],[1,1],[0.75,1],[0.5,1],[0.25,1],[0,1],[0,0.75],[0,0.5],[0,0.25]];outlineConnect=0;gradientColor=none;html=1;whiteSpace=wrap;fontSize=12;fontStyle=0;container=1;pointerEvents=0;collapsible=0;recursiveResize=0;shape=mxgraph.aws4.group;grIcon=mxgraph.aws4.group_security_group;grStroke=0;strokeColor=#248814;fillColor=#E9F3E6;verticalAlign=top;align=left;spacingLeft=30;fontColor=#248814;dashed=0;" parent="1" vertex="1">
          <mxGeometry x="300" y="790" width="220" height="195" as="geometry" />
        </mxCell>
        <mxCell id="blCzUI5lSqkDewgXkmDC-53" value="Public subnet" style="points=[[0,0],[0.25,0],[0.5,0],[0.75,0],[1,0],[1,0.25],[1,0.5],[1,0.75],[1,1],[0.75,1],[0.5,1],[0.25,1],[0,1],[0,0.75],[0,0.5],[0,0.25]];outlineConnect=0;gradientColor=none;html=1;whiteSpace=wrap;fontSize=12;fontStyle=0;container=1;pointerEvents=0;collapsible=0;recursiveResize=0;shape=mxgraph.aws4.group;grIcon=mxgraph.aws4.group_security_group;grStroke=0;strokeColor=#248814;fillColor=#E9F3E6;verticalAlign=top;align=left;spacingLeft=30;fontColor=#248814;dashed=0;" parent="1" vertex="1">
          <mxGeometry x="300" y="540" width="220" height="195" as="geometry" />
        </mxCell>
        <mxCell id="blCzUI5lSqkDewgXkmDC-57" value="" style="sketch=0;outlineConnect=0;fontColor=#232F3E;gradientColor=none;fillColor=#ED7100;strokeColor=none;dashed=0;verticalLabelPosition=bottom;verticalAlign=top;align=center;html=1;fontSize=12;fontStyle=0;aspect=fixed;pointerEvents=1;shape=mxgraph.aws4.auto_scaling2;" parent="1" vertex="1">
          <mxGeometry x="750" y="330" width="48" height="48" as="geometry" />
        </mxCell>
        <mxCell id="blCzUI5lSqkDewgXkmDC-52" value="" style="sketch=0;outlineConnect=0;fontColor=#232F3E;gradientColor=none;fillColor=#8C4FFF;strokeColor=none;dashed=0;verticalLabelPosition=bottom;verticalAlign=top;align=center;html=1;fontSize=12;fontStyle=0;aspect=fixed;pointerEvents=1;shape=mxgraph.aws4.application_load_balancer;" parent="1" vertex="1">
          <mxGeometry x="190" y="610" width="80" height="80" as="geometry" />
        </mxCell>
        <mxCell id="blCzUI5lSqkDewgXkmDC-60" value="" style="sketch=0;outlineConnect=0;fontColor=#232F3E;gradientColor=none;fillColor=#8C4FFF;strokeColor=none;dashed=0;verticalLabelPosition=bottom;verticalAlign=top;align=center;html=1;fontSize=12;fontStyle=0;aspect=fixed;pointerEvents=1;shape=mxgraph.aws4.internet_gateway;" parent="1" vertex="1">
          <mxGeometry x="20" y="610" width="70" height="70" as="geometry" />
        </mxCell>
        <mxCell id="blCzUI5lSqkDewgXkmDC-61" value="" style="sketch=0;points=[[0,0,0],[0.25,0,0],[0.5,0,0],[0.75,0,0],[1,0,0],[0,1,0],[0.25,1,0],[0.5,1,0],[0.75,1,0],[1,1,0],[0,0.25,0],[0,0.5,0],[0,0.75,0],[1,0.25,0],[1,0.5,0],[1,0.75,0]];outlineConnect=0;fontColor=#232F3E;fillColor=#8C4FFF;strokeColor=#ffffff;dashed=0;verticalLabelPosition=bottom;verticalAlign=top;align=center;html=1;fontSize=12;fontStyle=0;aspect=fixed;shape=mxgraph.aws4.resourceIcon;resIcon=mxgraph.aws4.route_53;" parent="1" vertex="1">
          <mxGeometry x="-210" y="490" width="70" height="70" as="geometry" />
        </mxCell>
        <mxCell id="blCzUI5lSqkDewgXkmDC-64" value="" style="edgeStyle=orthogonalEdgeStyle;html=1;endArrow=block;elbow=vertical;startArrow=block;startFill=1;endFill=1;strokeColor=#545B64;rounded=0;flowAnimation=1;" parent="1" source="blCzUI5lSqkDewgXkmDC-61" target="blCzUI5lSqkDewgXkmDC-60" edge="1">
          <mxGeometry width="100" relative="1" as="geometry">
            <mxPoint x="-140" y="565" as="sourcePoint" />
            <mxPoint x="20" y="570" as="targetPoint" />
            <Array as="points">
              <mxPoint x="-170" y="645" />
            </Array>
          </mxGeometry>
        </mxCell>
        <mxCell id="blCzUI5lSqkDewgXkmDC-65" value="" style="edgeStyle=orthogonalEdgeStyle;html=1;endArrow=block;elbow=vertical;startArrow=block;startFill=1;endFill=1;strokeColor=#545B64;rounded=0;flowAnimation=1;" parent="1" source="blCzUI5lSqkDewgXkmDC-60" target="blCzUI5lSqkDewgXkmDC-52" edge="1">
          <mxGeometry width="100" relative="1" as="geometry">
            <mxPoint x="-130" y="580" as="sourcePoint" />
            <mxPoint x="30" y="580" as="targetPoint" />
            <Array as="points">
              <mxPoint x="55" y="640" />
            </Array>
          </mxGeometry>
        </mxCell>
        <mxCell id="blCzUI5lSqkDewgXkmDC-67" value="" style="edgeStyle=orthogonalEdgeStyle;html=1;endArrow=block;elbow=vertical;startArrow=block;startFill=1;endFill=1;strokeColor=#545B64;rounded=0;" parent="1" source="blCzUI5lSqkDewgXkmDC-52" target="blCzUI5lSqkDewgXkmDC-17" edge="1">
          <mxGeometry width="100" relative="1" as="geometry">
            <mxPoint x="260" y="540" as="sourcePoint" />
            <mxPoint x="660" y="343" as="targetPoint" />
            <Array as="points">
              <mxPoint x="430" y="630" />
              <mxPoint x="430" y="383" />
            </Array>
          </mxGeometry>
        </mxCell>
        <mxCell id="blCzUI5lSqkDewgXkmDC-68" value="" style="edgeStyle=orthogonalEdgeStyle;html=1;endArrow=block;elbow=vertical;startArrow=block;startFill=1;endFill=1;strokeColor=#545B64;rounded=0;" parent="1" source="blCzUI5lSqkDewgXkmDC-49" target="blCzUI5lSqkDewgXkmDC-52" edge="1">
          <mxGeometry width="100" relative="1" as="geometry">
            <mxPoint x="660" y="767" as="sourcePoint" />
            <mxPoint x="260" y="590" as="targetPoint" />
            <Array as="points">
              <mxPoint x="430" y="890" />
              <mxPoint x="430" y="670" />
            </Array>
          </mxGeometry>
        </mxCell>
        <mxCell id="blCzUI5lSqkDewgXkmDC-69" value="" style="edgeStyle=orthogonalEdgeStyle;html=1;endArrow=block;elbow=vertical;startArrow=block;startFill=1;endFill=1;strokeColor=#545B64;rounded=0;" parent="1" source="blCzUI5lSqkDewgXkmDC-52" target="blCzUI5lSqkDewgXkmDC-47" edge="1">
          <mxGeometry width="100" relative="1" as="geometry">
            <mxPoint x="270" y="645" as="sourcePoint" />
            <mxPoint x="550" y="640" as="targetPoint" />
            <Array as="points">
              <mxPoint x="450" y="648" />
              <mxPoint x="450" y="648" />
            </Array>
          </mxGeometry>
        </mxCell>
        <mxCell id="blCzUI5lSqkDewgXkmDC-70" value="" style="edgeStyle=orthogonalEdgeStyle;html=1;endArrow=block;elbow=vertical;startArrow=block;startFill=1;endFill=1;strokeColor=#545B64;rounded=0;" parent="1" source="blCzUI5lSqkDewgXkmDC-47" target="blCzUI5lSqkDewgXkmDC-22" edge="1">
          <mxGeometry width="100" relative="1" as="geometry">
            <mxPoint x="810" y="600" as="sourcePoint" />
            <mxPoint x="910" y="600" as="targetPoint" />
            <Array as="points">
              <mxPoint x="880" y="648" />
              <mxPoint x="880" y="648" />
            </Array>
          </mxGeometry>
        </mxCell>
        <mxCell id="blCzUI5lSqkDewgXkmDC-71" value="" style="edgeStyle=orthogonalEdgeStyle;html=1;endArrow=block;elbow=vertical;startArrow=block;startFill=1;endFill=1;strokeColor=#545B64;rounded=0;" parent="1" source="blCzUI5lSqkDewgXkmDC-17" target="blCzUI5lSqkDewgXkmDC-22" edge="1">
          <mxGeometry width="100" relative="1" as="geometry">
            <mxPoint x="750" y="350" as="sourcePoint" />
            <mxPoint x="850" y="350" as="targetPoint" />
          </mxGeometry>
        </mxCell>
        <mxCell id="blCzUI5lSqkDewgXkmDC-72" value="" style="edgeStyle=orthogonalEdgeStyle;html=1;endArrow=block;elbow=vertical;startArrow=block;startFill=1;endFill=1;strokeColor=#545B64;rounded=0;" parent="1" source="blCzUI5lSqkDewgXkmDC-49" target="blCzUI5lSqkDewgXkmDC-22" edge="1">
          <mxGeometry width="100" relative="1" as="geometry">
            <mxPoint x="780" y="770" as="sourcePoint" />
            <mxPoint x="880" y="770" as="targetPoint" />
            <Array as="points">
              <mxPoint x="990" y="890" />
            </Array>
          </mxGeometry>
        </mxCell>
        <mxCell id="blCzUI5lSqkDewgXkmDC-76" value="Availability Zone" style="fillColor=none;strokeColor=#147EBA;dashed=1;verticalAlign=top;fontStyle=0;fontColor=#147EBA;whiteSpace=wrap;html=1;" parent="1" vertex="1">
          <mxGeometry x="290" y="510" width="810" height="240" as="geometry" />
        </mxCell>
        <mxCell id="blCzUI5lSqkDewgXkmDC-77" value="Availability Zone" style="fillColor=none;strokeColor=#147EBA;dashed=1;verticalAlign=bottom;fontStyle=0;fontColor=#147EBA;whiteSpace=wrap;html=1;" parent="1" vertex="1">
          <mxGeometry x="290" y="780" width="810" height="240" as="geometry" />
        </mxCell>
        <mxCell id="blCzUI5lSqkDewgXkmDC-78" value="&lt;br&gt;" style="sketch=0;outlineConnect=0;gradientColor=none;fontColor=#545B64;strokeColor=none;fillColor=#879196;dashed=0;verticalLabelPosition=bottom;verticalAlign=top;align=center;html=1;fontSize=12;fontStyle=0;aspect=fixed;shape=mxgraph.aws4.illustration_users;pointerEvents=1" parent="1" vertex="1">
          <mxGeometry x="-520" y="340" width="70" height="70" as="geometry" />
        </mxCell>
        <mxCell id="blCzUI5lSqkDewgXkmDC-79" value="" style="edgeStyle=orthogonalEdgeStyle;html=1;endArrow=block;elbow=vertical;startArrow=block;startFill=1;endFill=1;strokeColor=#545B64;rounded=0;flowAnimation=1;" parent="1" source="blCzUI5lSqkDewgXkmDC-78" target="blCzUI5lSqkDewgXkmDC-61" edge="1">
          <mxGeometry width="100" relative="1" as="geometry">
            <mxPoint x="-230" y="420" as="sourcePoint" />
            <mxPoint x="-130" y="420" as="targetPoint" />
          </mxGeometry>
        </mxCell>
        <mxCell id="hVgs-TnHQnnGqFTXmJPU-2" value="RDS Security group" style="fillColor=none;strokeColor=#DD3522;verticalAlign=top;fontStyle=0;fontColor=#DD3522;whiteSpace=wrap;html=1;" parent="1" vertex="1">
          <mxGeometry x="930" y="590" width="130" height="130" as="geometry" />
        </mxCell>
        <mxCell id="hVgs-TnHQnnGqFTXmJPU-3" value="EC2 SG" style="fillColor=none;strokeColor=#DD3522;verticalAlign=top;fontStyle=0;fontColor=#DD3522;whiteSpace=wrap;html=1;" parent="1" vertex="1">
          <mxGeometry x="650" y="330" width="90" height="630" as="geometry" />
        </mxCell>
        <mxCell id="blCzUI5lSqkDewgXkmDC-50" value="" style="rounded=1;arcSize=0;dashed=1;fillColor=none;gradientColor=none;strokeWidth=2;strokeColor=#da6613;" parent="1" vertex="1">
          <mxGeometry x="610" y="320" width="200" height="650" as="geometry" />
        </mxCell>
        <mxCell id="hVgs-TnHQnnGqFTXmJPU-5" value="" style="edgeStyle=orthogonalEdgeStyle;html=1;endArrow=none;elbow=vertical;startArrow=block;startFill=1;strokeColor=#545B64;rounded=0;" parent="1" source="blCzUI5lSqkDewgXkmDC-50" target="hVgs-TnHQnnGqFTXmJPU-4" edge="1">
          <mxGeometry width="100" relative="1" as="geometry">
            <mxPoint x="663.4000000000001" y="1020" as="sourcePoint" />
            <mxPoint x="840" y="1209" as="targetPoint" />
            <Array as="points">
              <mxPoint x="770" y="1160" />
            </Array>
          </mxGeometry>
        </mxCell>
        <mxCell id="hVgs-TnHQnnGqFTXmJPU-12" value="" style="sketch=0;aspect=fixed;pointerEvents=1;shadow=0;dashed=0;html=1;strokeColor=none;labelPosition=center;verticalLabelPosition=bottom;verticalAlign=top;align=center;shape=mxgraph.mscae.enterprise.user_permissions;fillColor=#0078D7;" parent="1" vertex="1">
          <mxGeometry x="1440" y="1120" width="65.8" height="70" as="geometry" />
        </mxCell>
        <mxCell id="hVgs-TnHQnnGqFTXmJPU-14" value="" style="edgeStyle=orthogonalEdgeStyle;html=1;endArrow=block;elbow=vertical;startArrow=none;endFill=1;strokeColor=#545B64;rounded=0;entryX=0.392;entryY=0.569;entryDx=0;entryDy=0;entryPerimeter=0;" parent="1" source="hVgs-TnHQnnGqFTXmJPU-10" target="hVgs-TnHQnnGqFTXmJPU-12" edge="1">
          <mxGeometry width="100" relative="1" as="geometry">
            <mxPoint x="1240" y="1160" as="sourcePoint" />
            <mxPoint x="1340" y="1160" as="targetPoint" />
          </mxGeometry>
        </mxCell>
        <mxCell id="hVgs-TnHQnnGqFTXmJPU-15" value="" style="sketch=0;outlineConnect=0;fontColor=#232F3E;gradientColor=none;fillColor=#ED7100;strokeColor=none;dashed=0;verticalLabelPosition=bottom;verticalAlign=top;align=center;html=1;fontSize=12;fontStyle=0;aspect=fixed;pointerEvents=1;shape=mxgraph.aws4.ami;" parent="1" vertex="1">
          <mxGeometry x="500" y="1120" width="80" height="80" as="geometry" />
        </mxCell>
        <mxCell id="hVgs-TnHQnnGqFTXmJPU-16" value="" style="edgeStyle=orthogonalEdgeStyle;html=1;endArrow=block;elbow=vertical;startArrow=none;endFill=1;strokeColor=#545B64;rounded=0;exitX=0.171;exitY=1.001;exitDx=0;exitDy=0;exitPerimeter=0;" parent="1" source="blCzUI5lSqkDewgXkmDC-50" target="hVgs-TnHQnnGqFTXmJPU-15" edge="1">
          <mxGeometry width="100" relative="1" as="geometry">
            <mxPoint x="490" y="980" as="sourcePoint" />
            <mxPoint x="590" y="980" as="targetPoint" />
            <Array as="points">
              <mxPoint x="644" y="1160" />
            </Array>
          </mxGeometry>
        </mxCell>
        <mxCell id="hVgs-TnHQnnGqFTXmJPU-17" value="&lt;span style=&quot;font-size: 14px;&quot;&gt;Wordpress AMI&lt;/span&gt;" style="text;html=1;align=center;verticalAlign=middle;resizable=0;points=[];autosize=1;strokeColor=none;fillColor=none;" parent="1" vertex="1">
          <mxGeometry x="480" y="1200" width="120" height="30" as="geometry" />
        </mxCell>
        <mxCell id="hVgs-TnHQnnGqFTXmJPU-20" value="&lt;font style=&quot;font-size: 14px;&quot;&gt;Packer&lt;/font&gt;" style="text;html=1;align=center;verticalAlign=middle;resizable=0;points=[];autosize=1;strokeColor=none;fillColor=none;fontSize=14;" parent="1" vertex="1">
          <mxGeometry x="305" y="1450" width="70" height="30" as="geometry" />
        </mxCell>
        <mxCell id="hVgs-TnHQnnGqFTXmJPU-21" value="" style="edgeStyle=orthogonalEdgeStyle;html=1;endArrow=block;elbow=vertical;startArrow=none;endFill=1;strokeColor=#545B64;rounded=0;flowAnimation=1;" parent="1" source="-WJY92YzRvW4A59yKcrQ-10" target="hVgs-TnHQnnGqFTXmJPU-15" edge="1">
          <mxGeometry width="100" relative="1" as="geometry">
            <mxPoint x="346" y="1350" as="sourcePoint" />
            <mxPoint x="590" y="1100" as="targetPoint" />
            <Array as="points">
              <mxPoint x="346" y="1160" />
            </Array>
          </mxGeometry>
        </mxCell>
        <mxCell id="hVgs-TnHQnnGqFTXmJPU-23" value="&lt;span style=&quot;font-size: 14px;&quot;&gt;Build&lt;/span&gt;" style="text;html=1;align=center;verticalAlign=middle;resizable=0;points=[];autosize=1;strokeColor=none;fillColor=none;" parent="1" vertex="1">
          <mxGeometry x="385" y="1130" width="50" height="30" as="geometry" />
        </mxCell>
        <mxCell id="hVgs-TnHQnnGqFTXmJPU-28" value="AWS Cloud" style="points=[[0,0],[0.25,0],[0.5,0],[0.75,0],[1,0],[1,0.25],[1,0.5],[1,0.75],[1,1],[0.75,1],[0.5,1],[0.25,1],[0,1],[0,0.75],[0,0.5],[0,0.25]];outlineConnect=0;gradientColor=none;html=1;whiteSpace=wrap;fontSize=12;fontStyle=0;container=1;pointerEvents=0;collapsible=0;recursiveResize=0;shape=mxgraph.aws4.group;grIcon=mxgraph.aws4.group_aws_cloud_alt;strokeColor=#232F3E;fillColor=none;verticalAlign=top;align=left;spacingLeft=30;fontColor=#232F3E;dashed=0;" parent="1" vertex="1">
          <mxGeometry x="-250" y="160" width="1650" height="1150" as="geometry" />
        </mxCell>
        <mxCell id="hVgs-TnHQnnGqFTXmJPU-32" value="&lt;span style=&quot;font-size: 14px;&quot;&gt;Amazon SNS&lt;/span&gt;" style="text;html=1;align=center;verticalAlign=middle;resizable=0;points=[];autosize=1;strokeColor=none;fillColor=none;" parent="hVgs-TnHQnnGqFTXmJPU-28" vertex="1">
          <mxGeometry x="1400" y="1040" width="110" height="30" as="geometry" />
        </mxCell>
        <mxCell id="hVgs-TnHQnnGqFTXmJPU-8" value="&lt;span style=&quot;font-size: 13px;&quot;&gt;SCALE OUT: Alram,&lt;br&gt;CPU &amp;gt;80% for 3 minutes&lt;br&gt;&lt;/span&gt;" style="text;html=1;align=center;verticalAlign=middle;resizable=0;points=[];autosize=1;strokeColor=none;fillColor=none;" parent="hVgs-TnHQnnGqFTXmJPU-28" vertex="1">
          <mxGeometry x="1010" y="960" width="170" height="40" as="geometry" />
        </mxCell>
        <mxCell id="hVgs-TnHQnnGqFTXmJPU-4" value="" style="sketch=0;points=[[0,0,0],[0.25,0,0],[0.5,0,0],[0.75,0,0],[1,0,0],[0,1,0],[0.25,1,0],[0.5,1,0],[0.75,1,0],[1,1,0],[0,0.25,0],[0,0.5,0],[0,0.75,0],[1,0.25,0],[1,0.5,0],[1,0.75,0]];points=[[0,0,0],[0.25,0,0],[0.5,0,0],[0.75,0,0],[1,0,0],[0,1,0],[0.25,1,0],[0.5,1,0],[0.75,1,0],[1,1,0],[0,0.25,0],[0,0.5,0],[0,0.75,0],[1,0.25,0],[1,0.5,0],[1,0.75,0]];outlineConnect=0;fontColor=#232F3E;fillColor=#E7157B;strokeColor=#ffffff;dashed=0;verticalLabelPosition=bottom;verticalAlign=top;align=center;html=1;fontSize=12;fontStyle=0;aspect=fixed;shape=mxgraph.aws4.resourceIcon;resIcon=mxgraph.aws4.cloudwatch_2;" parent="hVgs-TnHQnnGqFTXmJPU-28" vertex="1">
          <mxGeometry x="1220" y="960" width="78" height="78" as="geometry" />
        </mxCell>
        <mxCell id="hVgs-TnHQnnGqFTXmJPU-7" value="&lt;span style=&quot;font-size: 14px;&quot;&gt;Amazon CloudWatch&lt;/span&gt;" style="text;html=1;align=center;verticalAlign=middle;resizable=0;points=[];autosize=1;strokeColor=none;fillColor=none;" parent="hVgs-TnHQnnGqFTXmJPU-28" vertex="1">
          <mxGeometry x="1180" y="1040" width="150" height="30" as="geometry" />
        </mxCell>
        <mxCell id="hVgs-TnHQnnGqFTXmJPU-9" value="&lt;span style=&quot;font-size: 13px;&quot;&gt;SCALE IN: Alram,&lt;br&gt;CPU &amp;lt;25% for 3 minutes&lt;br&gt;&lt;/span&gt;" style="text;html=1;align=center;verticalAlign=middle;resizable=0;points=[];autosize=1;strokeColor=none;fillColor=none;" parent="hVgs-TnHQnnGqFTXmJPU-28" vertex="1">
          <mxGeometry x="1010" y="1000" width="170" height="40" as="geometry" />
        </mxCell>
        <mxCell id="hVgs-TnHQnnGqFTXmJPU-10" value="" style="sketch=0;points=[[0,0,0],[0.25,0,0],[0.5,0,0],[0.75,0,0],[1,0,0],[0,1,0],[0.25,1,0],[0.5,1,0],[0.75,1,0],[1,1,0],[0,0.25,0],[0,0.5,0],[0,0.75,0],[1,0.25,0],[1,0.5,0],[1,0.75,0]];outlineConnect=0;fontColor=#232F3E;fillColor=#E7157B;strokeColor=#ffffff;dashed=0;verticalLabelPosition=bottom;verticalAlign=top;align=center;html=1;fontSize=12;fontStyle=0;aspect=fixed;shape=mxgraph.aws4.resourceIcon;resIcon=mxgraph.aws4.sns;" parent="hVgs-TnHQnnGqFTXmJPU-28" vertex="1">
          <mxGeometry x="1420" y="960" width="78" height="78" as="geometry" />
        </mxCell>
        <mxCell id="hVgs-TnHQnnGqFTXmJPU-11" value="" style="edgeStyle=orthogonalEdgeStyle;html=1;endArrow=block;elbow=vertical;startArrow=none;endFill=1;strokeColor=#545B64;rounded=0;" parent="hVgs-TnHQnnGqFTXmJPU-28" source="hVgs-TnHQnnGqFTXmJPU-4" target="hVgs-TnHQnnGqFTXmJPU-10" edge="1">
          <mxGeometry width="100" relative="1" as="geometry">
            <mxPoint x="1130" y="710" as="sourcePoint" />
            <mxPoint x="1230" y="710" as="targetPoint" />
          </mxGeometry>
        </mxCell>
        <mxCell id="hVgs-TnHQnnGqFTXmJPU-33" value="&lt;span style=&quot;font-size: 14px;&quot;&gt;Trigger&lt;/span&gt;" style="text;html=1;align=center;verticalAlign=middle;resizable=0;points=[];autosize=1;strokeColor=none;fillColor=none;" parent="hVgs-TnHQnnGqFTXmJPU-28" vertex="1">
          <mxGeometry x="1320" y="970" width="70" height="30" as="geometry" />
        </mxCell>
        <mxCell id="hVgs-TnHQnnGqFTXmJPU-34" value="&lt;span style=&quot;font-size: 14px;&quot;&gt;Email&lt;/span&gt;" style="text;html=1;align=center;verticalAlign=middle;resizable=0;points=[];autosize=1;strokeColor=none;fillColor=none;" parent="hVgs-TnHQnnGqFTXmJPU-28" vertex="1">
          <mxGeometry x="1560" y="970" width="60" height="30" as="geometry" />
        </mxCell>
        <mxCell id="-WJY92YzRvW4A59yKcrQ-2" value="" style="sketch=0;points=[[0,0,0],[0.25,0,0],[0.5,0,0],[0.75,0,0],[1,0,0],[0,1,0],[0.25,1,0],[0.5,1,0],[0.75,1,0],[1,1,0],[0,0.25,0],[0,0.5,0],[0,0.75,0],[1,0.25,0],[1,0.5,0],[1,0.75,0]];outlineConnect=0;fontColor=#232F3E;fillColor=#DD344C;strokeColor=#ffffff;dashed=0;verticalLabelPosition=bottom;verticalAlign=top;align=center;html=1;fontSize=12;fontStyle=0;aspect=fixed;shape=mxgraph.aws4.resourceIcon;resIcon=mxgraph.aws4.certificate_manager_3;" parent="hVgs-TnHQnnGqFTXmJPU-28" vertex="1">
          <mxGeometry x="190" y="600" width="70" height="70" as="geometry" />
        </mxCell>
        <mxCell id="-WJY92YzRvW4A59yKcrQ-5" value="&lt;span style=&quot;font-size: 14px;&quot;&gt;AWS Certificate&lt;br&gt;Manager&lt;br&gt;&lt;/span&gt;" style="text;html=1;align=center;verticalAlign=middle;resizable=0;points=[];autosize=1;strokeColor=none;fillColor=none;" parent="hVgs-TnHQnnGqFTXmJPU-28" vertex="1">
          <mxGeometry x="170" y="670" width="120" height="50" as="geometry" />
        </mxCell>
        <mxCell id="-WJY92YzRvW4A59yKcrQ-8" value="" style="outlineConnect=0;dashed=0;verticalLabelPosition=bottom;verticalAlign=top;align=center;html=1;shape=mxgraph.aws3.certificate;fillColor=#5294CF;gradientColor=none;" parent="hVgs-TnHQnnGqFTXmJPU-28" vertex="1">
          <mxGeometry x="340" y="620" width="40" height="40" as="geometry" />
        </mxCell>
        <mxCell id="-WJY92YzRvW4A59yKcrQ-9" value="" style="edgeStyle=orthogonalEdgeStyle;html=1;endArrow=block;elbow=vertical;startArrow=none;endFill=1;strokeColor=#545B64;rounded=0;" parent="hVgs-TnHQnnGqFTXmJPU-28" source="-WJY92YzRvW4A59yKcrQ-2" target="-WJY92YzRvW4A59yKcrQ-8" edge="1">
          <mxGeometry width="100" relative="1" as="geometry">
            <mxPoint x="260" y="635" as="sourcePoint" />
            <mxPoint x="480" y="530" as="targetPoint" />
            <Array as="points">
              <mxPoint x="290" y="640" />
              <mxPoint x="290" y="640" />
            </Array>
          </mxGeometry>
        </mxCell>
        <mxCell id="hVgs-TnHQnnGqFTXmJPU-29" value="" style="shape=image;verticalLabelPosition=bottom;verticalAlign=top;imageAspect=0;aspect=fixed;image=data:image/gif,R0lGODlhcACAAPMAAEBAskFBskBAs0FBs0JCs1xO5V1O5VxP5V1P5VxO5l1O5lxP5l1P5l1Q5QAAAAAAACH5BAkDAA4AIf8LTkVUU0NBUEUyLjADAQAAACH/C0ltYWdlTWFnaWNrDWdhbW1hPTAuNDU0NTUALAAAAABwAIAAAAT+0MlJq7046827/2AojmRpnmiqrmzrvnAsz3Rt33iu73zv/8CgcEgsGo/IpHLJbDqfUKiBEe0VConq7no9aHFcruFbC4fH5Jg5nE2/1uaFuwVfo+eo+johx5v0dX4lgHqCIoR1BwiGH4h6BouMG46Ad5IXlIBel5iZiZydnmubDgpBAgMwonCkXT0EAACpb6tmrV1UOAMCsbKqtWG3Yje8vb60wK4ScG0xA8a9sy7JXMJmBn0txdCx0nTUBdasLNvcx9Pg4oEoAebQ3izg4ROZJeXu3b/U6oCRH7v4uMFbIY8foAS5ONwLmA9ZMoOEmmFYyLDhiwT76AGzNAFgRXP+A1tgrAXR0YFmAih+tCiDpEZqE1SuPDcjgQFPJSnFnOkuZIwFmXI62slToI6RhIQiIlrUmM8ZChApJcS0KcscDDS9TFbV6lMbBz4tA9e16dcbN21tBVa26NkbWYOtrdWW51scB8LOGwtTgsyVd3MocyCv7szAOrIV9mvVKZPFDv5+RNwjLVfGjWM5QUoXs1VUTxjoXWWYoQAtlj2VxudmtE7PH09XwWIhNVXYDCkT4SLRAQPOhXD3TBNGQUIJwOGslk3cTG8HycOU9sPsuIMGtrnUDSBID58KNteU5W4IkXXXBaoyL4/ouXTMAQhwytSbwc2YoEGJMkXBn24tq3CSBEooogg44FyePHcgZAfydVmDDrIFYYSdTchggxcuSNaEhG1ooYcQZjigiPqBiKGJGvY1IXqkcUihai5KsACLQ8U4QXS32ThBdoDoWAECPCrnYwVBmjHkBUVecSQGcQm5pAUK8PhkBlEZOWUGTaZ3pQZ6bblBlF6GKeaYZJZp5plopqnmmmy26eabcMYp55xHRgAAIfkECQMADAAh/wtJbWFnZU1hZ2ljaw1nYW1tYT0wLjQ1NDU1ACwAAAAAcACAAINAQLJBQbJAQLNBQbNcTuVdTuVcT+VdT+VcTuZdTuZcT+ZdT+YAAAAAAAAAAAAAAAAE/pDJSau9OOvNu/9gKI5kaZ5oqq5s675wLM90bd94ru987//AIG0hLGYIBIRxSUEimUznE1qUEgrUoNWZ/W25Xd4XqQzrxmQzDi1V29ht9wzuNMhl9Pi9lbfu+X16fyiBUnaDJ4VWZYgkiluNjo9+kSGTVoeVHZdWCpoenFKenxyhYAwJpEemmVOqTaYEowynr7SxowV1RLaxBBO6Uge2t5ytW6m2CJyzY7yvzBLBWwjPqpfAbMnQisdsmarLgc1029fj0n2M4X3ZfVi202jefcMuAwMAAjt05IXrJ/IBGAhgAA9xY9wpsiZCgEOCEA2KQTOBE8AOAQRA3DhQIg8D/l/8TYK3QSDHk/u8bBmVgBWGARpPyuwYBKQeedgo4JvJk6aWOhVjTYjZs6dHIOJEchpatGfKKrIktHQpoalRJplwTjpk0urJo1GESujqdWMYX0zLcnwKZWqoTGq/hkF4iWtcjmCh0H00gexdNzYnpb07kO3crRMIR+xSYN3ePH0VE8xrJM2EwO3GSh54tpZWNoMJG14iz9yCPnY3Uy6CkySDx18iq+6ScAJsSgz8xu28xZrb2gyIimaMZt2BeZpnZ/ks6LZsyaMr06EA+7lah2ryGIckQXhRAQMCyGEe+7Kh5N8BDCJfXgJC62uj3+E74fQv9BADiP8keMKBTESBmRcPYhbAJCAxDLAHB4IbmMIQg0FZBKEFCuYBzoQVTjchLKZsyGEoHqZDlYdohVgMiCZiRqCJI7K4lIkUqBgIjBXc9g2NFTxyIY6K4HhBIT7+aGGQQi5I5AU2unJkjaAtieQYOzopIm5SWvBYlRnYVwuWTCIRJZfuKQmmlfeNicGDZqap5ppstunmm3DGKeecdNZp55145vlKBAAh+QQJAwAMACH/C0ltYWdlTWFnaWNrDWdhbW1hPTAuNDU0NTUALAAAAABwAIAAg0BAskFBskBAs0FBs1xO5V1O5VxP5V1P5VxO5l1O5lxP5l1P5gAAAAAAAAAAAAAAAAT+kMlJq7046827/2AojmRpnmiqrmzrvnAsz3S9EYutxwSx/6weoQAsnoQEg3EZQvaY0I5zGK1epk+rVoLNbqPdHuILDYvJTHNPgS6qhbn27i2U6+jChL2G7yn3Mn1IgDyCPXGEQYZ1iYqLBAeNKo+DkkeUeZYmmEiRmiKcTp+goXCjIKV+pyAKqWyrHwihf7AeC6GvDHq1N5i0BTi8vY+5jMIYCcQTwGvHGbKGFE6ezhaGucxCRNUWyX0T3k673BTQb8Vd5BXZZr9hiOoMBucTavDqau5m2/EM5ljo8vWTMA+LvjcDGRzoEvANv3gFkWAT9BCfKAnhvg100rAPtXj+0GhlFJSQWUdBuUAefHSP3MlFCZeVGhMzlY+SNm/2Y8eJFggBAgYEGBB0wAAAAtDYnCAAgNOnUKNKjZqUzK1QE45O3crV6YA2ESll7Uo26lctBWgyuCpWgtaycL8ckvmIVlO4Zc9aySbt0Vi8ZKtqQaK2lSG7gMnqrcITEU+EbhN3FWxlilq2dBBL3ro4ymMCav+p+btZKuUoI4WoZYCHQmnOW8yo/TyF9OunnaGk5jhBdO3It83Ghqywne3guZnQdhI6zPHgclvXM8g0ONTkS5ZPobXwN4O31k+DETQubJLq1r1u0Z5OQndj4IOLL7OInzla6XGvb8vFS/zb2BmlsRsel+n0H4DDYZILLQeWFmAR7L2xGnD5RRfKhEQFNZRQAQSwSoR4tMRNTj6pYx4mMbFWSokglZIiQZy8KAFmMMnoD3821mUjXSTtOF0fLMo4YHs+8ihQkX0Rh6QEvm23ZAVNVvLkBDReNCUFy11pDRZaWmAYEkFqOVKXGIBJ5gXmnFnmeWp2o1ObcMYp55x01mnnnXjmqeeefPbp55+ABiroFxEAACH5BAkDAAwAIf8LSW1hZ2VNYWdpY2sNZ2FtbWE9MC40NTQ1NQAsAAAAAHAAgACDQECyQUGyQECzQUGzXE7lXU7lXE/lXU/lXE7mXU7mXE/mXU/mAAAAAAAAAAAAAAAABP6QyUmrvTjrzbv/YCiOZGmeaKqubOu+cCybxDLfOEMQSO6/u91vqAoKiUiScddLOj3LXeFJ1USD1WzlGpxqs1zjtxoWj51lY/M8TBsV7LbbHMfNl9667I7Xz/hGBn4xgEuDQIVqhyyJS4KLKY1RkCkIkkYHlCcKl12aJ507j59KoQSZpCOmBHmpIJymrqqhcLIhC521tq+Xursgkr6/H5aFowwFCcMdCcYUBTXLHYDH0EfSGgZ31XTYGMVp3G/eGbjhz1Gt5FtputaT6xfaYe5hyvEVB/QTzWHH+BK46OoXZg3AgFEGzrFxUMK8IL7uqAM4bgKghhZ3RLyIkYGljf6AJuI7JqljhXeFTE5AWUgkPpaFDB6EmcgkzUIMG4K7JJNirJd5Hl5y+avfBFi51hFkqO8nNoLXVpHr4zDU1CgMzZWcIGDALy73dGyVMACAWQFoU5WZsJMPhbJm48btCikN25oT4MrdOzeA1zhu1qTMy7dwYbpabipCuI2w4cd8BQD4m0SxIQlt/eWVDLlzZAAChlimqrXMqAGcPauWSxnH6CVrhF45nXr16tY3XsPzaHqz7d+4Z+iOgipzkGO1f3cOLmN4uoxRkCtfHdqH8ysTZBOQPt1z9RxQG2XfzUBv98ffc5jKc5ns+c6IcyDtBJ3A2/eQ4/uQKsHcffyG6bS3nylM2ecYgIUxh4NxMV1gHoKsPcHffxDupaAPDAKSU3nJVXghhk5VMEAAHZ734Q+h/HNBACS+dyKKl6i4AVolPvbiD9cFckJZNZp1I46NyFjCgz4C5gwMXYFWx3VCduRckya5pdI3c0yZQXjYWZmBXVpuGUaXGjAIpgalYTFmmO2diYFQam6gFZRtigVnnAXMGeedeOap55589unnn4AGKuighBZq6KGIJqrooow26qgEEQAAIfkECQMADQAh/wtJbWFnZU1hZ2ljaw1nYW1tYT0wLjQ1NDU1ACwAAAAAcACAAINAQLJBQbJAQLNBQbNcTuVdTuVcT+VdT+VcTuZdTuZcT+ZdT+ZdTucAAAAAAAAAAAAE/rDJSau9OOvNu/9gKI5kaZ5oqq5s675wLM90bd/4TCR5rxIEg29IAgILxKTHyFQ6M8zmcyqJRqlT6xWb1Fq5RO8XnBNryTezF11Tr9kxt3gBf8nnddbdjMyrEHtefX4oCoFaCoQpgIdjiiYGjVFCj5CSTHSVJYyXQJqbnUCUnyILoUGkI6ahg6kfq6GuIQynBLIhtbcgp6O6HKGJvkuSwcLDgQbFxh2Hyg08yxp7yRWe0VByzgVG19hmvc9b3RaRYtqO4xTmFQlv6epW1BTbXgfvFIZM52bQ9w1M8ibI6XeP0T43ztIpANduTyZ/FujtSehPYiCCEC0igyhB4yFw/ukadmr1jtMlktESQIPVKd22lbmuSczE8pJMJggEhsppzCPPfzuNeekX85ZHI0RP3RIpSGcsV0cdFdUU1Uoxk5JIVbXycyqhrVq6hgIJh2kgp1kfgTUzAesdsmzMNmo7l8IAAQAGsCl6YKNdAIABCNALplxLCW69gLsbuLEAAVyKJkbXgHHjy4AJP+GrZjHmz4EhOylq+IxdvKBTi05SWlKm1kY8p54NeLWPyXv6wLZ1mrbv2kNqBcMq+7dxzWlOBYO1GLXx54JxrFWTqS/vCZaha89rY7oZngeKb98uIAAN72IwSsg+vr3tF+i9/MTevn5t5PDHVmBvH/rgGvFNlIKBc/0ddwNu32wwQAAF+vbfDTXJ8cGCDYKGXw0RJhhCAAQ2+GAOcolhAoMVXoiDHHCF8Jh9Hwan4QodGtdiGCLCoJ2JQySWIowO4uiiODXEGJiPNMbmQ4czZsFNEqgRqcQ2O96QJBZRcmTllVhmqeWWXHbp5ZdghinmmGSWaeaZaKap5ppstunmm3DGKeecdNZJQwQAIfkECQMADAAh/wtJbWFnZU1hZ2ljaw1nYW1tYT0wLjQ1NDU1ACwAAAAAcACAAINAQLJBQbJAQLNBQbNcTuVdTuVcT+VdT+VcTuZdTuZcT+ZdT+YAAAAAAAAAAAAAAAAE/pDJSau9OOvNu/9gKI5kaZ5oqq5s675wLM90bd94ru987//AoHBILBqNhOTiKEw6Cczf81mI7qZYg/WG7RK0W5l3HIaNz9DyCs1Wp9hwNwqOBstJCvr5bkLovXZ8In9eCIIkhF2GhyF+iVNVjCCOj06SIQuVT5cgmpucHp5JB6AdCaIES6Ubp6KrHKiBrxeopLMZqKq3FpSauxgGqL8XwZ6ywwyaBgoKyBWZhMvNzhYHetLUuGzY2RrFXcsZBQUEkdng0xfjT7rOveEY61jdDHnw6mfHw7b42/T9dPj9I5cowUBP9FohHJbAXK5dDZM4FJUOVER2EqB5Msjp4jwJ/nlcSZJHRgKqNHxInuGYTJQ5NSrZsET10grBgiCFbblZaQLPnla+VVrEwJqxLUIfEUVFlAnTCQ+jhPS0qBdQqToZ/Hy0ZerQCVa5WglLaKmopkdqZURV0YjRhQzIEtqZdeu1MnbnmkykLwpNqHf5/C0Kpy+DAQMEAGCS9w/YfBkQKwZAWcARuY73ZomcmLJnz5aLPJXwjvPn06cHEMFMx6zhAQFQyz4dGohCTe0wwJ7NO3WQt750d+5N/HPtHo39XZBcvDntH0m3GWYw2bl1zwF8XJs+ofr168dxeAU0Ivb37zswc+fg/XxzHdHXf2jvvrcA1VycyBdhvn5z/DV8bzHDAP45F94l/RXYG4Cg0Kcgagxy4uCDp70yIYX3RcgJhcYhNsyF1mWYDYj2efhPgsWJ+A8FJAKg4ooWoAiaiTBmkOCLNW4QAI459ujjj0AGKeSQRBZp5JFIJqnkkkw26eSTUEYp5ZRUVmnllUpGAAAh+QQJAwAMACH/C0ltYWdlTWFnaWNrDWdhbW1hPTAuNDU0NTUALAAAAABwAIAAg0BAskFBskBAs0FBs1xO5V1O5VxP5V1P5VxO5l1O5lxP5l1P5gAAAAAAAAAAAAAAAAT+kMlJq7046827/2AojmRpnmiqrmzrvnAsz3Rt33iu73zv/8CgcEgsGo/IpHLJbDqf0Kh0Sq1aoYSsdptFXD3csHis+HLG6LR5o0i7uYa1BvGuE+SZtt1dwGP2b34XdIBofYIVhIViiBULi2NejROQY5MTCZVhC5cSippZnQwHoFuHl6VacZ2ZqQSrl5+gogauBJydta6ipK6wk7qporKauJfBpaIFtqeTvr+Nj2MG1AYK19hlohYL2dvfUAkJBeTlBM2s5eaAxlTj6ssECRPxwkfv6osTxJXaQ3qpDuxzJYkIP0gTpAUsUq/UPAm27hSJOKFXqodDFDqkZMvIQX3+EgCWahfkYyFjFCd2lKARFDogFksVNAnISMNZIZkVaanpVEoiP1vtIhITFCyaezyuZMCzkkAiTSEV/DnkpqaKtvwJEVrqFDKcRKxWmvBVU0EhURf5oyoEqZ2BrrQGEQlq5tIhP4vWqUYtSdpCBXXxheau0GBwELPw3TGgsePGAsA9njxAgGUBADJr3gwg8qXKnEOLHg1gQCfMpFOPFoVatevMnicNeE278+nar0Xhdh27UYDdqnsj+g2ctO7io4ULao2cc4DbzUMfj84ZOnXNyv0wvz79uu3P3jWbBh8eQPfr2fGUzzx+0nbq57mTp33ZMuX2kzpfvu8Ysf//AAYfKOCABBZo4IEIJqjgggw26OCDEEYo4YQUVmjhhRRGAAAh+QQJAwAOACH/C0ltYWdlTWFnaWNrDWdhbW1hPTAuNDU0NTUALAAAAABwAIAAg0BAskFBskBAs0FBs1xO5V1O5VxP5V1P5VxO5l1O5lxP5l1P5l1P51xQ5QAAAAAAAAT+0MlJq7046827/2AojmRpnmiqrmzrvnAsz3Rt33iu73zv/8CgcEgsGo/IpHLJbDqf0Kh0Sq1ar9isdsvter9IAtiFIJjP41P5zG6nP4u2fC5+X9b0vNzuwOv/c2CAg3ILX36EgAWHiY2MjYRfBZCECV5xlIAIXgmZg1+ef5teBqF5o12mel+lqoFernSLOQuWMQqxcgo6mGcFsyqTuW45wnm/J8NshjqQv7YeBq3KO9OZzx4K2taZBjuIrgXQHNuQqDjKbBQJwOQK0n/MOMbK8ojYHdvcBzr0w6i9ZInLpo0frXRmoAUkhMwIQgLjwrXr8bCOBIQDmyE89/DcjYX+uSiAi7XDX65dEkC6MoBy3kNgI13J+/jQ3kODOBhwi9WyE8YdLyk89KZj50oKBxASzRFTldCfvB4ilfoDnswJSZUaMQqoZdZ0E49Y1YOqqdMoY89wpGpF2lIHJl151NJAq520nvhYwDto7pYB0biyCctFAIAAAxJ/2Pn2i2EAkCELQAw4sJ0BkTNnnpy4sl4MmkNr5qz484QAolOPpuz5DWbVsDW3ToM6tu3ZY2rbhi3g8+7ben/H7s1HeGzfxlMTt/M4+Wi9zZ1HXm5Hemjqaaw/5xNdO3LtkAPo1a0d+5jX4AF8B28eTHfr49NDXq9dPB/y1u0zF/A+uWkHnQU30F9suH0W4IDb/YdBYgKqpqAHB2b2YAgBTmjhhRhmqOGGHHbo4YcghijiiCSWaOKJKKaoIgkRAAAh+QQJAwAMACH/C0ltYWdlTWFnaWNrDWdhbW1hPTAuNDU0NTUALAAAAABwAIAAg0BAskFBskBAs0FBs1xO5V1O5VxP5V1P5VxO5l1O5lxP5l1P5gAAAAAAAAAAAAAAAAT+kMlJq7046827/2AojmRpnmiqrmzrvnAsz3Rt33iu73zv/8CgcEgsGo/IpHLJbDqf0Kh0Sq1ar9isdsvter/gsHhMLpvP6LQaRWgT1h+Eew7fzO/tukWO7wMNBT4JfYR5OwVzgTmDhY1vOHx3ijWRjo02Bo2TMAeWnm4ynwSbLJWini6IpwUJLKevoCmqsG2kI5m0tCe5eLYfuLyvJabBtSHAxaIIJMTJxh3NzoXLIozShL4T0dd+I7Pc2BcL4JbZHMjkfa0XCujpoyMK2+nUGu3vBPXH+H0F+pG27nEzsGCENX5z9DEYJ8mCwGQKQbjjp3DiMwoPaQFCYZGbQgX+ngKC1OXqXcVV7E4VfNExlz6GsHyNdESjpbIK80KmJHTghk1HKyUcTLYOI7qgPmEZwJkuIC4fP90UlRCVl7kfNpdSyHntKlRCCipUleb1xx2xCPFoXZKvQto7BsJKOTDW2VopbxNdqRtsC99XSKcMsPDX01QqAgQMRntNiwAAABRfSFb2yQDIkCUTztXlMubMAxZTqNuz8+fToTc7usvl8WnUoid0jLglwOvbmkf3EmP7Nu7YVNuwBuO7eG41xZMfP5O8+XIyzaMDQONaum/gYqpbf409zPbi3cFo/45ZAHPyr82bGY9+uhnP7TOfgR9fvZn45dHgx0x9v/v7/ulc518AZ7BHXnhfGPgdgl8MoKB09s33oHJwOEhehGpYaB2Ga4QGoR4UeNgciBWE9iCJF2h4GooYqAgZixmoyCCLGsK4QWo25qjjjjz26OOPQAYp5JBEFmnkkUgyEAEAIfkECQMADAAh/wtJbWFnZU1hZ2ljaw1nYW1tYT0wLjQ1NDU1ACwAAAAAcACAAINAQLJBQbJAQLNBQbNcTuVdTuVcT+VdT+VcTuZdTuZcT+ZdT+YAAAAAAAAAAAAAAAAE/pDJSau9OOvNu/9gKI5kaZ5oqq5s675wLM90bd94ru987//AoHBILBqPyKRyyWw6n9CodEqtWq/YrHbL7Xq/4LB4TC6bz+idopAeEd4EdruzMMDv88zhzofnKwV9gm9ybQiDiIRoBQuJjnFlgY+TBGEKjZSZCVwJh5mfilqgo6E0CHZvMKSjhS+efaqroC+YiDCospSbKQiSj7e5ma0ie6SxwY/DHQavq8fIicoZuMjP0LYa1NeVL9rbcAgYzd9+3eRxBeEY3uepL9+7FvEMCu2C1qQLGAuvFArs5/BlUnBhgS88FACSA0bJAMEL9RLNi2ivnAuF4MSNQ9SKYkVu/u8EMbqQ4CCljh/dPUOg70IxWRUwVpNhYB6Fl8jmycylYycplO1uHKjVDug1aTJSlqIHDSkNpSol+OzDDMjUYDo/Oa0hYEBCqEYTPfQhAIDXCVdzheWzNUdZAAEqgPVHrSURAHgBdKUAFaRUv0QG5MW7Fy1Um0jeDjb79SMCxEcCLM4bl+85BWObSJ6MN8BZCd/aJuactzDoYAsyRyG9+DODtHdEL9nMOq/rtLKbKK7dWW4yLrt563U9qKqX4MJNM4AVRjjp2wRUf3H+PA111pXNIL9O+Mx27gK8c+fsesx48mfOTz4jWP1g8e7zpo/fXTt9vfPplxfTPn6aAd85YdfGALSNl0eB1GU34Hjh/QHgdfv9F+Bif1SAIGkVVtAfaQ1mOMGGkynoIQMPcibiiCUu1uGIFFzIIgYgvggjZTLCWNaKNVLwYI4ZRMjjj0AGKeSQRBZp5JFIJqnkkkyGEQEAIfkECQMADAAh/wtJbWFnZU1hZ2ljaw1nYW1tYT0wLjQ1NDU1ACwAAAAAcACAAINAQLJBQbJAQLNBQbNcTuVdTuVcT+VdT+VcTuZdTuZcT+ZdT+YAAAAAAAAAAAAAAAAE/pDJSau9OOvNu/9gKI5kaZ5oqq5s675wLM90bd94ru987//AoHBILBqPyKRyyWw6n9CodEqtWq/YrHbL7Xq/4LB4TF4WFIayZ1FoEwiIt5xQUE8WinYhPu/76WIHBX+EhXMJYoaKhWOLjnN1YQaPlJFgk5SOjZmaiZyKll+Yn4WIYaSKm6h/oV6jq32tXa+wcqZgtX+quW+yXLS5vlu8fbvExsFiwLW3X8RywikIQaQIcQkLC9MpCQrafMU/y3MHCnkrBwYG1plBBnsIeCwHfOOcVuYF6nuAE89ySxbQcwOukCUF/94EOcAmjr1HBxO6kzjhISlqFBkgzJhjAIWE/hE52hAAwKMEi59uobyXg2RJfxxXtrsxAIBNAR//hfx3w6VNkwxkVpqw8ZmNmjaTAhX6iALTTjMCJE0qAGhCAjl5ykA69WZWYjuNxvDZ9eVJkERFtijb1WpMtSrYdsUJU6vGqy/kdg3wlVdYXi646v1ZMaFKuysGl3WL+KmhFoIVA6ArAa2EoqQGqWuWQvLiwjrTGsIUb9uMyJ7NBjUMuoBAQT7Ipp7MeJUBNNk4E5ldljKDTGfkQeHNdmkfBAoQwM5CvLga2c0nq4nO1jcY1NGtg6H+mQz25nagE9ce5vtsOxLMSyY/Rv1goOjFK2bvvTn9+rzRX5Camq/+CgPIUFfWfxe45xWBFhiIIAYCSrdggoPdR+B3EiKInX8PMjhghhlEBh+HECYF4gYufTgigCSduEFNKrbo4oswxijjjDTWaOONOOao44489ujjBxEAACH5BAkDAAwAIf8LSW1hZ2VNYWdpY2sNZ2FtbWE9MC40NTQ1NQAsAAAAAHAAgACDQECyQUGyQECzQUGzXE7lXU7lXE/lXU/lXE7mXU7mXE/mXU/mAAAAAAAAAAAAAAAABP6QyUmrvTjrzbv/YCiOZGmeaKqubOu+cCzPdG3feK7vfO//wKBwSCwaj8ikcslsOp/QqHRKrVqv2Kx2y+0KEwsvjEAmIAyKQkGMMpTfZDdCHWaD4Pi8eVG3X/SAeQYGfhRugYhla4USiY4EjBKHj4AJkQyUgYuMmYGXk51wm4Whep+leJaRqKKXrHCnr2SjfrJlrrYEqpy2tHa5kJGgrL5swLi2u6S9yLKxssViCwjUr5cXCdQFw4DXHQUK1Ah50V4HIwsJBIfP6wfn3hsCAxOAB9oI8RQAAfWUBggUKOjjRwAAAPQYcMsEEIEyLQEOIvRna8K9OVYMShQwYWGoTf54DGx7ElHiwYSYcnVE5CbBwyEmJfZrpFKCgk7iEBDkEdNkQo+dNgHNtKOnT4rObB7DodEoAI6ScoGsaWOA06M0K0bVauOqyZkpud6kOsNrzJ9SkVqjYfasWlYTxnKFYbXtxpXMGMhNSteu26yvhJJ14Tcm2KV6Ebco3BNt3rB8WTRlfPItqriKU0ym/BSvLFV716qoyxkrZGKeRaco3fMw1dBwR7OOmRo1YNUnSM+eeDt24sEmNpeGyuAAms9KgZfQPZt4hWlDydW+vGL3QbAdzhQ40y353Ny7naNLYFzu1O8mmFN+kQ4z+uCsxcN49w53+uE9FriJ/oYFZ/k/TGkzTncpqOcVgEZsQ4CCKxh4lT4WCOcUgt44aBiEF7RFoT4WHoQhBh1uCKGEnX0IolEomZjhhSpmwFyLGuiWIowRVkajiyXemAEAOvbo449ABinkkEQWaeSRSCap5JJMNunkk1BGKSWQEQAAIfkECQMADAAh/wtJbWFnZU1hZ2ljaw1nYW1tYT0wLjQ1NDU1ACwAAAAAcACAAINAQLJBQbJAQLNBQbNcTuVdTuVcT+VdT+VcTuZdTuZcT+ZdT+YAAAAAAAAAAAAAAAAE/pDJSau9OOvNu/9gKI5kaZ5oqq5s675wLM90bd94ru987//AoHBILBqPyKRyyWw6n9CodEqtWkOGAuJ6I3gNC+7MSzYkxDCymlBAt9ZrxNaNgtvb9JLBfs+P9nx8c34dgIF8CoQdh4wEZ4oYjYwGkBeSjI+VE5eHeJoSnIGen4ahaqOapaZknxOqqwStm7BqsqC0rLa4ZJmfu16olb9stq+mwZDGpsXDtgzNur/OCQW7va0LB7TIrQir3LLVnOBuAxIGB2EW2pKVAwLmDIaU642QAwAA8c9qBxcK3vgoCpBP3yw46ioosOMHX0EAAQ7CMTCIwgJxXq5dIfgQgACJ/oEuLAhILkrHhyADIUhIgZoYAScfxlOGiBDMmAVnfmN5BWdHnbDA9PT5M6UpjU4cEs1pdJkUjksLfrxlTcKBREyinpzKbxeehcSQKNWKkiouT2v8ESGLE+hZo2qB3GRbVB40u3bo9ZhLV2bTUK4OoeMxtm++fXfBdqpoo7DhiGZpTVDcSGhjwx25DntE+RJjGI77av71lZbeGJg7/h23uvLnFXwxu8XVuh0MqKlnSz53t0Vouoil8Rbu4jfb4Lsm92ZhnOzoqgw6wwKdOh/XCRhXcV6+ovnSfRYW0BQlQfqqGLHJgs/A7hJa4i7SRw2RnVFte7fpXgeRwDbe5C94kufXCf2FNByAxZHFwgIClcedCgJC1sJFa2wHH3PfzaBYaReyQNR6MVxkIYLxxbRfDg+qkB6IOYx3SX4D/lDfeQEWJOEQ7TmVoEFITFfjjUgE9KIzGczIEJEaiHcIkhwICQeTHjQIJQf1TcnfHlaGwFOWXHbp5ZdghinmmGSWaeaZaKap5ppstunmm3DGKeecI0QAACH5BAkDAAwAIf8LSW1hZ2VNYWdpY2sNZ2FtbWE9MC40NTQ1NQAsAAAAAHAAgACDQECyQUGyQECzQUGzXE7lXU7lXE/lXU/lXE7mXU7mXE/mXU/mAAAAAAAAAAAAAAAABP6QyUmrvTjrzbv/YCiOZGmeaKqubOu+cCzPdG3feK7vfO//wKBwSCwaj8ikcslsOp/QKMyQkPIIBINVh8UqtreuF1wTd8kzc7eAhqm7i3bL8BbLV/T6+o7Sm9l8JX5qgSSDalqFIIdqCIofjGpfjxyRb4CUF3mWZo6ZFpucYpifEqKXpRSnaqSlq2ZVqaavXbGytGeys7i6DKGvvb+rvbhYrZ/FBMeZCMW2sgjNr8+6wpG9FQrDlAMCAAMSBgcUBaeP3QDp4L7KFZzLZAHp8wATYuMT5YzwUvL08wLsiUkkQdshfk+8/aMXcFcXfAL9UIuysOI6BnU8OXyzZUDFj/4X64ijII1jFHQfLUZ8ozGcySYoU4J0OahCyVxLPMrcuc5aIwoL9LVbsrNovY1+IO5CGESn0Y8NMXKqQIcpEKdPF0Y9FWdCgolFsGalF/KUVSJix6pbyYkgk7Rqe+JqmUShWrI0aYEtYvfuWna4zv7w+4/tKsE94I7dWgyQgklhCQM0fCqWQSOKs5blVRCL26aS/0rlzMCgsSGZn8otNuEX5B99/a4mbS1I7LuzX2HS83pH6HSURe3WQxdH6qLdgr/rXHPHcagXKZheZflgcRrPtWoQao75ob0xsquLruGmpdaWPs/IHvWDeUboLRW4/uI2wwAlFohS7od+C/sAtLRngnz8+aGeCyqxwJ0ew73SGwtYCSDgCu+x4t0r/p2gE3kwLAjLhcC84BEO05kxQYnbyKHfSz5NFYiH8ZHGxwEmIpViIKY1SMsnVRUI3ycFVMeaLih2J0uR++lC45C6eJhkLwc4eQ02eblIpQRS+nElUE9uaaMeXmYzZZj5/EgmBS1icaYFFeK0Zow1vmnBS3JWsGCdGISCZwb67JmBNn4GKuighBZq6KGIJqrooow26qgVEQAAIfkECQMADAAh/wtJbWFnZU1hZ2ljaw1nYW1tYT0wLjQ1NDU1ACwAAAAAcACAAINAQLJBQbJAQLNBQbNcTuVdTuVcT+VdT+VcTuZdTuZcT+ZdT+YAAAAAAAAAAAAAAAAE/pDJSau9OOvNu/9gKI5kaZ5oqq5s675wLM90bd94ru987//AoHBILBqPyKRyyWw6n9DozlCQ8ggEhFWHzW5vhi5h8a2JvWVZ+KxNw87dqtsF7ybmrHUdQcan6md+f4BigiaEZ3KGIoiJiyF6jVgHjx+ScJUel5iZGptwbZ0Xn3AKohaRpFinFap1rBOupbCpsgSwtpyitbKKnbmBrMBxsAvDBHePAxYIw34BAgMCAgAAyxXNtr5Q0tXe39XXDAYU2a5OA9LU4Ozf4mgSvUgCAe329gITehMJrslFA+4JZPeuCzkJ5jYhCTiwoTUJqShJKPBp25B1Du8VDAZR4RGG/hk1xno1spFFIRhDssvXcQ8/Sf+IgFRJsGQdiQwSkjQyk6a7loT+6RRzMkhKn9VYMrhUDtBCpDXjMbVZ6MhRpEp5uZTQzxFPqOA2XsJprOpXsN6uaSXUJycxq2iTUvWIcNXHuOHmXvJl9yzarLZCJSgKBO9DqbbaPsWr1pmSqz6VHru1OK7YXDFl4gV8jPAPw5dzVcY6Td9kzz4g35tW+sJaUhMUhALSc2WAACBe010jhCFreifK5lLURXEP3C4oipagQMxsQ0M3KUrVKTpM5nAOVrKOKHYd7YsOqCIOCLwh5XSbE+qE3qTp7pk2JVPf6Jck79crta9D/lJmQcLtoUTfVJUESNR7mzxnCCDzuaKgIALK8iAe4h2ImIOZDIifLZ2sMR0wE+LRTIPDhDiHIgMud8pklImSooodToaLjKzsxyEsFcLIioGqwEKBbuv5SMGNQkrAI4FFugVbkj8uyaReTj3ZCpJSKllflRS8yBGWE3DXIpdQfgnmRFGOSYGNYprJwH5qumZWm0P2BScFZc15gTF25qnnnnz26eefaUQAACH5BAkDAAwAIf8LSW1hZ2VNYWdpY2sNZ2FtbWE9MC40NTQ1NQAsAAAAAHAAgACDQECyQUGyQECzQUGzXE7lXU7lXE/lXU/lXE7mXU7mXE/mXU/mAAAAAAAAAAAAAAAABP6QyUmrvTjrzbv/YCiOZGmeaKqubOu+cCzPdG3feK7vfO//wKBwSCwaj8ikcslsOp/QqHRKrWYWVhyhkLUZCARsdwYmGMayMhgN+6rF7JVbTYiz6GWuHYVX709zfQl/JX1qeoQhhnQIiSCLeI4egZB1khyVdIiXF5mRnBeUnpugDKKelqUSqIaqDKx9jaWnsHBCAgC5ArgDAymwhmdDA7nFxsa7uAEfwIvDx9DR0AEBAwK+FAnNrUG40t/g2BMI231BAeDp0csW5OWHP8Tq88XiwgwL734+8vTz9mEm0GIFBJ0/dQDXSCigj5SOfge/CaCg5t47hzkgRpQm7tOrcv7xvG3kKBDPgQnbBvkwOHIdRZMTDgDDiENjy2ITURqSlQ9WvJskVy2SxcCdJyAigdYrueieNk8qe7BUmoudUEhER/2kaqzjUQlGnfHj2pVppqyQCpLNlRDVhJ59aN6wCTTnVVRo8ci1QReoV1iIGHrkYW0tgLa1JMAtE5UwgGtJW1r92OyeYDB7QyajZ5fytnH7olhLtmvp3W2IyiQaSFCCtsxW9JVRMAF2lcuyQbFmRdQR7ougZGMGFRZkKdmNLxUH7GoxsAkK7kkyLuGL7S6/tUpQoJrTTOhqaF/KnlZn6OmooooKrp0BdzzSHWVC9N4cp90UBsYn5JyO+krsxaEFXiXJEfKUR/VBcl0X9lWHykmXyATPdqwsmMUc9D13X3enQcXef82AUkCG29jCSYIhqrJbJb1JsmImoKBYjomESChbi4kIp9B4OuL4R3/UuShcKTYG6Z0+zb3jSoduLWlKik561mSUGkZZVGtWOghjlm99xSVYAH5pHjdijjlYmWKV+RIdalpwZptPngfnQhzO2WUqdlJgYZ589unnn1BEAAAh+QQJAwANACH/C0ltYWdlTWFnaWNrDWdhbW1hPTAuNDU0NTUALAAAAABwAIAAg0BAskFBskBAs0FBs1xO5V1O5VxP5V1P5VxO5l1O5lxP5l1P5l5P5wAAAAAAAAAAAAT+sMlJq7046827/2AojmRpnmiqrmzrvnAsz3Rt33iu73zv/8CgcEgsGo/IpHLJbDqf0Kh0Sq1ar9isdsvtelGExNdFICDGrDLBgE4Z1OX26Q0nyEt19eIuyqsVSgI5dH5xRwMCAIk2hIV2RogAkpKLMY2OkJOakwIDZI51RQObpJwroHlnQomlrYqCJZeoZkGRrreSASKys48+tri4AgGeHby9P6PBy5rFGb2YPcrM1JSwFdCOBzys1d4AzhLZjgU6wN/U4RII437lOOfowZ0X7O158PLV9BME2w0L7tVRVWOavmDqyuwBKDBUjW4HcYUjRLAhnIUx4kVsNdFhA4v+agi+MLixFT9x+CQUAGkIBsSSpE5+9NOPpUgYGksmLPRPAUtfNIbBBEfhWJl/K0G+w/Hym0yjamo2FMOt6TKZvSo2FBLAqklsvdisu7d0iACvkzpmk5qtrCivarNRtQfNLRJgT++p8gmN6hNE4RqKnTkri0WCdAvZlQIVGUpyhllOSFxn8ZSfCwP68Yul8SyxDGhy+bm0shfKAtlavqIZ5OQynLv8fC0HswSMaH7ebEOaj0qWsdsk3eqb7bjVvMkWB3ucggJAvof34vxmNxrU0SYQKt4aVFkFjZbP+p7SNyryef7xAUW9EHQ+BwpVMDr4TnzTE/iCKq6/DHpU4qmO8R+AxUVVlFwFAtWAZxcVx1l/ay0nAYR1SbigRRIymB0fGjpi3Rg/vXfHT8GhIR1xfHSH4nqSJQgSbrXZVBx249QXY4sczubiiizy2GM7Fo4FZJANUEggkTTKR6RxGy5J2H5OUlBYlFJCSeUEJ8JxZQXYbXlBeV5WaWCYXI5JpnMtnUkBjGq26eabcEYZAQAh+QQJAwANACH/C0ltYWdlTWFnaWNrDWdhbW1hPTAuNDU0NTUALAAAAABwAIAAg0BAskFBskBAs0FBs1xO5V1O5VxP5V1P5VxO5l1O5lxP5l1P5l5P5gAAAAAAAAAAAAT+sMlJq7046827/2AojmRpnmiqrmzrvnAsz3Rt33iu73zv/8CgcEgsGo/IpHLJbDqf0Kh0Sq1ar9isdsvter9g3mAACKvGgDRAYC4NAuo4uw16x+/pAJ1jx/v1excDAn6FaQJzOQc9g4aOeTgGBAU7jY+XZTQEmwQIOGOEmKKJLpycCjZooqtqLZKmnJ4zfay1AAMpr7CcCzK0traAJLq7vDPAyGq4IcTFxrPJyMIczc6cqaHRrALLGdXW1zfZ2qvdFd/g4TeW5I/cF+npsjnj7XfvFgvx8Tz19gHmKiTYl84HnH8BG0ha1AABQWuUDJIDaEEXAwn6HhaL+CPZmIr+sCY41LiL4w8yq7gl/DYB3UOTJzHhqwBuAsliDIf4UzOTAj8JN3flHMLu0Mp9BmwGNZXkIMVzD3MuZZqkpwSX1pROTfoEq7VeQKducuIVHEMFYscuKZsObEaxTNISSCChQNp5SdjWDCuWqxK5IsXCRAJYwsibg5MUbvD2ZZTFJBMvObx0nuMpjYP6jSf5yYG7WjdmsSs4tKnOUuSiYlyyC+mpbk9/kXuxwcBJYRYnQJ1l8Z60vLtMDd4lM0HiXijvQ/7l9nILCoa2eQ1usAJJeNt8rg5dF3MsaJ1Zb/b9SrXE4Xet/i0b+t5AnND/DFRgPMFAGK5rxF9Bv0a/+PmDdxN/At6UnRnbTXVgGNQFJR2CaT0YhnI30UVfWhayBxd+vtEBGodp4UchSQuCodd7dBg34IVilfjFiBqtRweMD7mY3Id70HgfiEHxZ9qOPvIFZJBCFkQkBQ06c6QFOhKw5AUuPYlBkk5KiQFlVm6QUZYc2Mjll2CGKeaYZJZp5plERAAAIfkECQMADQAh/wtJbWFnZU1hZ2ljaw1nYW1tYT0wLjQ1NDU1ACwAAAAAcACAAINAQLJBQbJAQLNBQbNcTuVdTuVcT+VdT+VcTuZdTuZcT+ZdT+ZdTucAAAAAAAAAAAAE/rDJSau9OOvNu/9gKI5kaZ5oqq5s675wLM90bd94ru987//AoHBILBqPyKRyyWw6n9CodEqtWq/YrHbLZQ2+AgBg0DV9B4GweC0ug84CNXu+dmfg9HxeYJfg9YCAdgGBhYFkbnKGi2uIZQOMkXVukJKMfZaRfYSZhXx2ip16oKKFAaSlgKeJqaqDraOosHOYs3OrrLZruCoGBgQIP5W6Yp8lvwTJysE/obMCjh7IytTKC0HOlnFn0tPV38pD2YECAdwdvuDq3wpEw3rQXyEL6/XfRqHx0RvTEwj2AIEd0dcN3IEJAQEWoJLO3sEG9BLWg+ItoT+J6xYqqYgxGcKO/uCuIQFpUEIBkveQcCQ54SRKakleUtPYQKYymkVc2rxok0CSfzYfNjjQE2eRngSEIhVaBOhOCQqQ/pQqAanPkT2Z1cyKRKdMnk+PINXq9GU7rEHBmkVS9qVatyp7GvhoU6sRpGe32sxbJGLYBDILFEiQhKjNuVU7Cn6CVKTfeoOntCVJFpxgwlfG0r3cBSnmBp/LRH0ZuU+FlRlLm8agUPVqDYarLfbA1LRL1xsUKEDG9zUH3bvB+c69GzXM4RR0N0zYu4/yr76NYxyO13ds6K8ng0T8Gil309fhdufqe2l5quPrUu/JwLdX8aurv34M3/RomXZNa34dHuV69eftNeUeequ951+A9ZkmnTrIWWCgcA1msE6EHTxG4YUYZqjhhhx26OGHIIYo4ogklmjiiSimKEEEACH5BAkDAAwAIf8LSW1hZ2VNYWdpY2sNZ2FtbWE9MC40NTQ1NQAsAAAAAHAAgACDQECyQUGyQECzQUGzXE7lXU7lXE/lXU/lXE7mXU7mXE/mXU/mAAAAAAAAAAAAAAAABP6QyUmrvTjrzbv/YCiOZGmeaKqubOu+cCzPdG3feK7vfO//wKBwSCwaj8ikcslsOp/QqHRKrVqvQoE2MOh6u1gWYEwul7Vo7hcc5pjf8DigvRHI73D6Bs8v6zN9gX8YA4F9gxd2hneIFoWLcgONFZCMkxOKlW8Cl5iaeZ0Mj59noQwBpGammakAnKGtfqGjsaaxZKu3AAG2urm3vKGsqaa0qcGdw6SraK2vphNrXgFoWnHQJNKS2NwjBN/gBuLi3RsK4Ojp6ujj5J3r8PHpFOrtBlMI8vrrCxP5+/HsCVkAsCABBP4MAkwQ5J9CefQeykMIxKHEdQcSXoQX5MBGeP4ZJRT4uE5BEJLrIqIE1w/IyJXgKDKAiS5IAprfQjJ4SVOnD5zfVNI8CZShBIsoZfogCHQCT5hGfxhoOgGo0h5IUbZkkJWkTaA6u34sQBQnBbEXyQLxiNOkBKAEgpzDqZbBTZw+e8AVCjMIU5pbn678ilMm2otbfyQowLjxR75JpyxuzBhdVMEoOyWYTHljXR8GFIge7RbHZsqVv90DAtAe6dHQ2NJc3eiwxEuyYX7+g5lkaUR7J+VemVeP7Ye0EU01O6n3x+R/jiu8+id4bbCT/uq+ZB2R841RB32/SF3P+Ie7/yynWb7N+dvNqTbSvjLxIKvlLBjMz7+///8ABh4o4IAEFmjggQgmqOCCDDbo4IMQRijhhBRWaGETEQAAIfkECQMADAAh/wtJbWFnZU1hZ2ljaw1nYW1tYT0wLjQ1NDU1ACwAAAAAcACAAINAQLJBQbJAQLNBQbNcTuVdTuVcT+VdT+VcTuZdTuZcT+ZdT+YAAAAAAAAAAAAAAAAE/pDJSau9OOvNu/9gKI5kaZ5oqq5s675wLM90bd94ru987//AoHBILBqPyKRyyWw6n7iAYDCA9gDYadUaxXoFgS13JvCaAWDx2DU4u9Nrl3uODsdV9DzAfi8F9Hp8fSBtgIACgx9lhoBqiRqMgAGPHZGAlByLlnOYG3+bnJ0ZhaBnjqIUpW6nqBKqZ4itFpqvALIWpLW3FrVerK29XrupwbHDDLSvxxK5yssMwXvP0ZPLyaXGx1TXls8UVJ+bv9oD4YbZrQYEBAaj5nTVsgnr9OzuercI9fv2GOWhqPTxG9jOn5QvAQcqpFfwQjkB6BIJXEixn8NOFTPWa9hKo8eN/qLmfRzJ8JE6kiQPPBKJ8iMCCiw5NlnQciTHiSCZnKyp8WZFmUQK8PSocsLOjEB/HBiq8eWEmkl1KGD6kwJOqD2oVnQqQajWdVFhLLj6lV4BClPL5pzhVW09rgzIul1Qo61auG4H0sVhl2lRCXLV7n1hwICCDAX6kjw8IfBXuC72GUasOCNjwHnXvghs+HKFxEQpZN4no6cCzzAr06NAc/RqGKoXdsaQoC9cx18Hu2jdcvaF2gTg8h4NmQXukac5sBx9FkZatckxxNb6N7Jrixem12y++ToB1NK/Vm/xnHkI7RVlHKdqAv2+4iy8E1DhPiyK9UztkwA9EL6K5ZnpaXcCf+tw58JRAdqQmIAluDeUf1yUl9l4cQyXFwIU9uFaArK4tQxVHHojQUsQfviRiBpshWIHA4G3YorrlPjijDTWaOONOOao44489ujjj0AGKeSQRBZp5JFIJqnkkkw26eSTUEYp5YwRAAAh+QQJAwAMACH/C0ltYWdlTWFnaWNrDWdhbW1hPTAuNDU0NTUALAAAAABwAIAAg0BAskFBskBAs0FBs1xO5V1O5VxP5V1P5VxO5l1O5lxP5l1P5gAAAAAAAAAAAAAAAAT+kMlJq7046827/2AojmRpnmiqrmzrvnAsz3Rt33iu73zv/8CgcEgsGo/IpLI0WBIBgqYTGAAAAtPfwGqVZnUCrjXg/dqq4q75lhaT1zR0Ww2PyefXcn0Vxrv1eyd+c4CBJINzb4YmiHiFix6NeIqQIJJ+j5UYl4OakZx4nh2goaIbpHOmp6hpqhl9rFyuGLCxALMXtaxYuBW6qAK9FVu2UMIUxMXHE8mxvMu/qMvMxcHTEgN3oNbX2KzcuAYEBMPakr3j6QQGw6DPpgvq8uWXmYHx8vnsyOeiBfkA0+2j1klTgX8BEw7EZk4WJHEJIwpsl8rQAgQSM6aj12rPRY3+IMctZNDsVh2EIVNyNGlGQcqXE/mxnAIRps11w7IkuMlz48mePUciOaCAwk6gN4USOZCuKAWUSEEuSHIAozoDTidAjRoQQRKJWSVs5RqTAoJ/SnEgsBoRa4WxUS18vLoDX8iRR6MesFCgZj61PMMygJuyQIIKbNvSmMvTLYWbayswVRkjMVDBhAMemIrYZloTmRtj1sj5MdAVoZGOTlh6guXGJ/yS1bdanWAGa2fjJKFbIt50Xivk7U1uBHGwwi2cPU43BPO2tyXYfa7OOfWA0VMf/4zh+rwM2reD8F58Q3jie8eLB3Gea3Djsw2kDzGcOYLW8JHeP9EepgH8JgBxNR8K6Llw02Et9BfRfjGkhCAMCubzngwaPShDhOMUkENCE9bQn4Y8yNPhDfUlBMQ4I+qQWYrdYLAViy2Ch2KMNNZo44045qjjjjz26OOPQAYp5JBEFmnkkUgmqeSSTDbp5JNQRinllFRWaeWVWGaJQwQAIfkECQMADAAh/wtJbWFnZU1hZ2ljaw1nYW1tYT0wLjQ1NDU1ACwAAAAAcACAAINAQLJBQbJAQLNBQbNcTuVdTuVcT+VdT+VcTuZdTuZcT+ZdT+YAAAAAAAAAAAAAAAAE/pDJSau9OOvNu/9gKI5kaZ5oqq5s675wLM90bd94ru987//AoHBILBqPyKRyyVQFBs0gQACN+gBTa2+AzWp13K7gm+uKyTdzt4qWBdTrtkwAj8tfdTP7rqLn7Xwpfn9Ye4ElhGqGhyFviXqMJI6PgJEflHCLlhqYalSbHYOdWJ+gGqKjU5qmEqlwY6wWqK5esROzrgG2FLRwuxNhvV2/EsHCsL/CZsStyljMDMa0q6zSqdR8CAUKBAQU1p2bCwgG3ebd372HBeft7enXcgvs7vXn8OFaBwX09v73wDohU7LAQLl/CN3hSzTwSIKEEO0t/FNkwYFuCib0i8jR261H/kHYHTyXUcLGjgkNUMDVRRcPBSP9lWRwEuU/lR/zYHOBQAGCjjhN2owYdADLGvyGmgtKU2lKYLMatojptBvTmlXPFUW180RWd1e/2iuqZobYdmHPog2IxWUMtVopwH3HVmqLueZmMsBrLh0NvhjlAv5WAzABvYZ1GEY8OMdiwXAt7ngs4WHWA0x7UGZguSO5BUY2Y3WHoDSHcT894hAtE7QGbaMVA55Jj5xeDAoUjI7ruHFlDqVtZi6MF0GHzk6H//1qwPiGBQvmKjdrk9z0C7uzXofBUdsBEtmrbn/xb8HtEuGdyu5W2vld3zcIuH8L31JiU/dB5beEfK6p/nD9YbdfJOmpB0qBQ43XBoLCmcJgRAokEMuD9ijg2i8UynchNEIhxE8BHGaA1U/fhcjBOQhsaOKKLLbo4oswxijjjDTWaOONOOao44489ujjj0AGKeSQRBZp5JFIJqnkkkzKGAEAIfkECQMADAAh/wtJbWFnZU1hZ2ljaw1nYW1tYT0wLjQ1NDU1ACwAAAAAcACAAINAQLJBQbJAQLNBQbNcTuVdTuVcT+VdT+VcTuZdTuZcT+ZdT+YAAAAAAAAAAAAAAAAE/pDJSau9OOvNu/9gKI5kaZ5oqq5s675wLM90bd94ru987//AoHBILBqPyKRyyWw6n9CodGoTUHUAwOB6G2St3Jogqw3PxmSwGUYmb9euQJsMb3nn2Xc9hW/r9yVofWWAJoN+hSSCh2qJH3KHiI4fkXONkxqLlYSYGpuWnZmfc3+hE5qjnKYSqXiloaitr5itfZeYsbWzhXe1eLchCwsJS7m+ux4EysvMzQQGygjKBtLTFAkLBgoKBwUJBsLfBsQevb54J87q684KE+zwztAGp+fo6fH5y/QSBfr/E8zZAybinz53EgzqC2jviwqF+SYkgAiPYUMWFNkhZOAvozqL/r4CYPT48R3JZvwYGGPk4iTKCR1dKgOZClkJmcw24rQmYWUfGDufwQxKc5OMoDp3pvTZ5qjSoTuLDiI4EmdSnCkF2qIRlABUnFLvcd15FawErU1tdJVItF4fkTeQfpUZFkCOrmVdLsUDF0fQlDHpngW1Q27Cpz3TFkbMsS2DXjbHWjWJtR5VtYwDu2QYuYZhBmvPLklA+sCBYQYMHFD9TBqClAkKIJAGLV61kqtGrEaw4EDu38B/xJTtb/ZsArNVzy4gW4EwBOQ6aT5p6m+o6SSrM56E3aP2qJ0mgpfuGJN18uPNb3fUPeN3mSm5l58UGlN7iqbuQ3yv9/p8R+fZQvdfIgHKl94k4DS3wHLMNWhcR6/dVkB8wVVo4YUYZqjhhhx26OGHIIYo4ogklmjiiSimqOKKLLbo4oswxijjjC5GAAAh+QQJAwANACH/C0ltYWdlTWFnaWNrDWdhbW1hPTAuNDU0NTUALAAAAABwAIAAg0BAskFBskBAs0FBs1xO5V1O5VxP5V1P5VxO5l1O5lxP5l1P5l5P5gAAAAAAAAAAAAT+sMlJq7046827/2AojmRpnmiqrmzrvnAsz3Rt33iu73zv/8CgcEgsGo/IpHLJbDqf0Kh0Sq1ar9isdsvFDroxAQD8GgAAX/LKfE63FlrxGSB4EQgFg6EamM/td4F4UWx+aC6CiQQIcEtyhoeIiooFSI+QdZKTm41Bl5BjmpujBww+faB+biujrYIFlTmfqausrrcKOKmgmS23t3sSCYwxqLuGtSm/txMFgQoHByyzx5Esy665Epwo1bSA2JPBDa3O4yDU3r3X4ZvNv84f6d7Wtu2K2s7hCAga8/TJUNybpI3cwDsJKvyjFwDcQQLjHgqaYIweL4cP30kkMKGQRVD+AU9svJNvZDCPH5GJelhwJEcJC701XDkw4kiKKS/SHKhRYsecIHfeK7nxJFBIIU24bHkT5lE/6+w9tLkR59N67KpK0OdTAsqUMzEeJCrR6NGoLhAYkMhUa4OYkMLSWHCQatcGX6slnbFgLbaeGb2m3GsjQYJfZKcKtoj2x7BRbe/CVXIgTyK7gfFWa4zEgIJAgA/+PDYlAbStJieQzsI1czoujO7mVdMA1j2zc+TSbnDALzDVczhfSZhBQWt3TgHo3hKIWIYDCJBrFo7leIF+z33fOUkdy+FJ/ApeQGBud4Vf2M132Jde/YXjyxSId9/g+0B+xOm7pG/QrXr4t/F+t59+TbkHYDv8HRjOOeYN6J6D/xUYYVECStighbsp+Bd9Gi7D4G4QXuifeR3+kmBq9BkQ3V38qaXdhvydh2CMGFz3y4c0VsDPipPk2EEBB/To4wd9BYLjkBskIA2STDbp5JNQRinllFRWaeWVWGap5ZZcdunll2CGKeaYTUYAADs=" parent="1" vertex="1">
          <mxGeometry x="-430" y="980" width="105" height="120" as="geometry" />
        </mxCell>
        <mxCell id="hVgs-TnHQnnGqFTXmJPU-30" value="" style="edgeStyle=orthogonalEdgeStyle;html=1;endArrow=block;elbow=vertical;startArrow=none;endFill=1;strokeColor=#545B64;rounded=0;flowAnimation=1;" parent="1" source="hVgs-TnHQnnGqFTXmJPU-29" target="hVgs-TnHQnnGqFTXmJPU-28" edge="1">
          <mxGeometry width="100" relative="1" as="geometry">
            <mxPoint x="550" y="840" as="sourcePoint" />
            <mxPoint x="650" y="840" as="targetPoint" />
          </mxGeometry>
        </mxCell>
        <mxCell id="hVgs-TnHQnnGqFTXmJPU-31" value="&lt;font style=&quot;font-size: 14px;&quot;&gt;Terraform&lt;/font&gt;" style="text;html=1;align=center;verticalAlign=middle;resizable=0;points=[];autosize=1;strokeColor=none;fillColor=none;fontSize=14;" parent="1" vertex="1">
          <mxGeometry x="-415" y="1090" width="80" height="30" as="geometry" />
        </mxCell>
        <mxCell id="-WJY92YzRvW4A59yKcrQ-1" value="HTTP/HTTPS" style="text;html=1;align=center;verticalAlign=middle;resizable=0;points=[];autosize=1;strokeColor=none;fillColor=none;fontSize=14;" parent="1" vertex="1">
          <mxGeometry x="-430" y="350" width="110" height="30" as="geometry" />
        </mxCell>
        <mxCell id="-WJY92YzRvW4A59yKcrQ-4" value="" style="edgeStyle=orthogonalEdgeStyle;html=1;endArrow=block;elbow=vertical;startArrow=none;endFill=1;strokeColor=#545B64;rounded=0;" parent="1" source="-WJY92YzRvW4A59yKcrQ-8" target="blCzUI5lSqkDewgXkmDC-52" edge="1">
          <mxGeometry width="100" relative="1" as="geometry">
            <mxPoint x="100" y="780" as="sourcePoint" />
            <mxPoint x="200" y="780" as="targetPoint" />
          </mxGeometry>
        </mxCell>
        <mxCell id="blCzUI5lSqkDewgXkmDC-59" value="" style="rounded=1;arcSize=0;dashed=1;fillColor=none;gradientColor=none;strokeWidth=2;strokeColor=#da6613;flipV=0;align=center;" parent="1" vertex="1">
          <mxGeometry x="160" y="360" width="320" height="560" as="geometry" />
        </mxCell>
        <mxCell id="-WJY92YzRvW4A59yKcrQ-10" value="" style="shape=image;verticalLabelPosition=bottom;verticalAlign=top;imageAspect=0;aspect=fixed;image=data:image/gif,R0lGODlhfwCAAPECAP+Ni/7Wif///wAAACH5BAUFAAIAIf8LTkVUU0NBUEUyLjADAQAAACH/C3htcCBkYXRheG1w/z94cGFja2V0IGJlZ2luPSLvu78iIGlkPSJXNU0wTXBDZWhpSHpyZVN6TlRjemtjOWQiPz4gPHg6eG1wbXRhIHhtbG5zOng9ImFkb2JlOm5zOm1ldGEvIiB4OnhtcHRrPSJBZG9iZSBYTVAgQ29yZSA1LjYtYzE0OCA3OS4xNjQwMzYsIDIwMTkvMDgvMTMtMDE6MDY6NTcgICAgICAgICI+PHJkZjpSREYgeG1sbnM6cmRmPSJodHRwOi8vd3d3Lncub3JnLzE5OTkvMDIvMjItcmRmLXN5bnRheC1ucyMiPiA8cmRmOkRlc2NyaXB0aW9uIHJmOmFib3V0PSIiIP94bWxuczp4bXA9Imh0dHA6Ly9ucy5hZG9iZS5jb20veGFwLzEuMC8iIHhtbG5zOnhtcE1NPSJodHRwOi8vbnMuYWRvYmUuY29tL3hhcC8xLjAvbW0vIiB4bW5zOnN0UmVmPSJodHRwOi8vbnMuYWRvYmUuY29tL3hhcC8xLjAvc1R5cGUvUmVzb3VyY2VSZWYjIiB4bXA6Q3JlYXRvclRvb2w9IkFkb2JlIFBob3Rvc2hvcCAyMS4wIChNYWNpbnRvc2gpInhtcE1NOkluc3RhbmNlSUQ9InhtcC5paWQ6RTNBQTU0OTFBOUQxMUVBOTU3MDg2MkJBRUJFRjlCRSL/IHhtcE1NOkRvY3VtZW50SUQ9InhtcC5kaWQ6RTNBQTU0RkExQTlEMTFFQTk3MDg2MkJBRUJFRjlCRSI+IDx4bXBNTTpEZXJpdmVkRnJvbSBzdFJlZjppbnN0YW5jZUlEPXhtcC5paWQ6RTNBQTU0RjcxQTlEMTFFQTk1NzA4NjJCQUVFRjlCRSIgc3RSZWY6ZG9jdW1lbnRJRD0ieG1wLmRpZDpFM0FBNTRGODFBOUQxMUVBOTU3MDg2MkJBRUJFRjlCRSI+IDwvcmRmOkRlc2NyaXB0aW9uPiA8L3JkZjpSREY+IDwveDp4bXBtZXRhPiA8P3BhY2tldCBlbmQ9/yJyIj8+Af/+/fz7+vn49/b19PPy8fDv7u3s6+rp6Ofm5eTj4uHg397d3Nva2djX1tXU09LR0M/OzczLysnIx8bFxMPCwcC/vr28u7q5uLe2tbSzsrGwr66trKuqqainpqWko6KhoJ+enZybmpmXlpWUk5KRkI+OjYyLiomIh4aFhIOCgYB/fn18e3p5eHd2dXRzcnFwb25tbGtqaWhnZmVkY2JhYF9eXVxbWllYV1ZVVFNSUVBPTk1MS0pJSEdGRURDQkFAPz49PDs6OTg3NjU0MzIxMC8uLSwrKikoJyYlJCMiISAfHh0cGxoZGBcWFRQTEhEQDw4NDAsKCQgHBgYFBAMCAQAALAAAAAB/AIAAAAL+lI+py+0Po5y0zoCt3rx7gYXfSJZbKJrqyhoo2sby+cLzjTP1m/f9XvMJY8Dd8FgqApFMjnLZjF6eUKlVRy1et4jsk7v1fsFSMZW8AkzNY/QIAI+wve4P/P6Y0+ucOz6vd8Zn4ecHGNg2GFFYeIiopQjByOj4GBTpMElZaWmDqaA5ydmZ8nkQqjlKanqKmupAamTqGqq6ikmLamuJm6sLG+vJ50u7G6hIXAwcHDCYnGs8N/wMvXyLRu0LEeyWTRy9R+adDC4INv7cECuOTr6wft6ensDNJT/fBb91756vb8XvG716VwJqG0hQisFq/v5FWais4TWFEH9JnNikosX+A8wyANT46mKngiBFIUyYseQmkbw+qjR00iGTl41iYpxJ8w/LRyRzqrE50mVOBR2bCaVJtGPPoUBbUvSZlNlSpE15Hn0ZFSVOqFURTcXa9dhVlVllIvEZJ6yer2TVShtbsuzNs2jlBn3KdKdXuCDtOn1Y1y0btnEFmyHc17AYxBr9WsVLVa9YyGAlr+XbWHE4wFwtv6Xc1vNgzBUd7wVdWPRh0hBNT+acl6NS1gtdX0adWPVi2gZtf4YdWbZU3gF9j8adWffmlJ2Fa6Xb3PncI2h/vjNLPTCWu8Arq/vLPLa13+GDb7vdPbQE8uW9rzFHnJ8T+MhLd4BkTzsrQvpj91Oo7p8GAAbIn3gETmDggQiqp2AFDDboYHIQbmDfhB3UZqEHvWVoxz0ckiDPhyCiI2IJ45RoQjYoqoDPiiMe5GKKDMUo40Y01mjSjWmEpOOONfXYwo9AsgDTkDGkZWSSBxQAACH5BAUFAAIAIf8LeG1wIGRhdGF4bXD/P3hwYWNrZXQgYmVnaW49Iu+7vyIgaWQ9Ilc1TTBNcENlaGlIenJlU3pOVGN6a2M5ZCI/PiA8eDp4bXBtdGEgeG1sbnM6eD0iYWRvYmU6bnM6bWV0YS8iIHg6eG1wdGs9IkFkb2JlIFhNUCBDb3JlIDUuNi1jMTQ4IDc5LjE2NDAzNiwgMjAxOS8wOC8xMy0wMTowNjo1NyAgICAgICAgIj48cmRmOlJERiB4bWxuczpyZGY9Imh0dHA6Ly93d3cudy5vcmcvMTk5OS8wMi8yMi1yZGYtc3ludGF4LW5zIyI+IDxyZGY6RGVzY3JpcHRpb24gcmY6YWJvdXQ9IiIg/3htbG5zOnhtcD0iaHR0cDovL25zLmFkb2JlLmNvbS94YXAvMS4wLyIgeG1sbnM6eG1wTU09Imh0dHA6Ly9ucy5hZG9iZS5jb20veGFwLzEuMC9tbS8iIHhtbnM6c3RSZWY9Imh0dHA6Ly9ucy5hZG9iZS5jb20veGFwLzEuMC9zVHlwZS9SZXNvdXJjZVJlZiMiIHhtcDpDcmVhdG9yVG9vbD0iQWRvYmUgUGhvdG9zaG9wIDIxLjAgKE1hY2ludG9zaCkieG1wTU06SW5zdGFuY2VJRD0ieG1wLmlpZDpFM0FBNTQ5MUE5RDExRUE5NTcwODYyQkFFQkVGOUJFIv8geG1wTU06RG9jdW1lbnRJRD0ieG1wLmRpZDpFM0FBNTRGQTFBOUQxMUVBOTcwODYyQkFFQkVGOUJFIj4gPHhtcE1NOkRlcml2ZWRGcm9tIHN0UmVmOmluc3RhbmNlSUQ9eG1wLmlpZDpFM0FBNTRGNzFBOUQxMUVBOTU3MDg2MkJBRUVGOUJFIiBzdFJlZjpkb2N1bWVudElEPSJ4bXAuZGlkOkUzQUE1NEY4MUE5RDExRUE5NTcwODYyQkFFQkVGOUJFIj4gPC9yZGY6RGVzY3JpcHRpb24+IDwvcmRmOlJERj4gPC94OnhtcG1ldGE+IDw/cGFja2V0IGVuZD3/InIiPz4B//79/Pv6+fj39vX08/Lx8O/u7ezr6uno5+bl5OPi4eDf3t3c29rZ2NfW1dTT0tHQz87NzMvKycjHxsXEw8LBwL++vby7urm4t7a1tLOysbCvrq2sq6qpqKempaSjoqGgn56dnJuamZeWlZSTkpGQj46NjIuKiYiHhoWEg4KBgH9+fXx7enl4d3Z1dHNycXBvbm1sa2ppaGdmZWRjYmFgX15dXFtaWVhXVlVUU1JRUE9OTUxLSklIR0ZFRENCQUA/Pj08Ozo5ODc2NTQzMjEwLy4tLCsqKSgnJiUkIyIhIB8eHRwbGhkYFxYVFBMSERAPDg0MCwoJCAcGBgUEAwIBAAAsAAAAAH8AgACBh/+I/taJ////AAAAAv6Uj6nL7Q+jnLROgK3evHuBhd9IllsomurKGijaxvL5wvONM/Wb9/1e8wljwN3wWCoCkUyOctmMXp5QqVVHLV63iOyTu/V+wVIxlbwKTM1j9CgAj7C97g/8/pjT65w7Pq93xmfh5wcY2DYYUVh4iKilCMHI6PgYFOkwSVlpaYOpoDnJ2ZnyeRCqOUpqeoqa6kBqZOoaqrqKSYtqa4mbqwsb68nnS7sbqEhcDBwMMJicazw3/Ay9fItG7QsR7JZNHL1H5p0MLgg2/twQK45OvrB+3p6ewM0lP98Fv3Xvnq9vxe8bvXpXAmobSFCKwWr+/kVZqKzhNYUQf0mc2KSixf4DzDIA1PjqYqeCIEUhTJix5CaRvD6qNHTSIZOXjWJinEnzD8tHJHOqsTnSZU4FHZsJpUm0Y8+hQFtS9JmU2VKkTXkefRkVJU6oVRFNxdr12FWVWWUi8RknrJ6vZNVKG1uy7M2zaOUGfcp0p1e4IO06fVjXLRu2cQWbIdzXsBjEGv1axUtVr1jIYCWv5dtYcTjAXC2/pdzW82DMFR3vBV1Y9GHSEE1P5pyXo1LWC11fRp1Y9WLaBm1/hh1ZtlTeAX2Pxp1Z9+aUnYVrpdvc+dwjaH++M0s9MJa7wCur+8s8trXf4YNvu909tATy5b2vMUecnxP4yEt3gGRPOytC+mP3U6junwYABsifeAROYOCBCKqnYAUMNuhgchBuYN+EHdRmoQe9ZWjHPRySIM+HIKIjYgnjlGhCNiiqgM+KIx7kYooMxSjjRjTWaNKNaYSk44419djCj0CyANOQMaRlZJIHFAAAIfkEBQUAAgAh/wt4bXAgZGF0YXhtcP8/eHBhY2tldCBiZWdpbj0i77u/IiBpZD0iVzVNME1wQ2VoaUh6cmVTek5UY3prYzlkIj8+IDx4OnhtcG10YSB4bWxuczp4PSJhZG9iZTpuczptZXRhLyIgeDp4bXB0az0iQWRvYmUgWE1QIENvcmUgNS42LWMxNDggNzkuMTY0MDM2LCAyMDE5LzA4LzEzLTAxOjA2OjU3ICAgICAgICAiPjxyZGY6UkRGIHhtbG5zOnJkZj0iaHR0cDovL3d3dy53Lm9yZy8xOTk5LzAyLzIyLXJkZi1zeW50YXgtbnMjIj4gPHJkZjpEZXNjcmlwdGlvbiByZjphYm91dD0iIiD/eG1sbnM6eG1wPSJodHRwOi8vbnMuYWRvYmUuY29tL3hhcC8xLjAvIiB4bWxuczp4bXBNTT0iaHR0cDovL25zLmFkb2JlLmNvbS94YXAvMS4wL21tLyIgeG1uczpzdFJlZj0iaHR0cDovL25zLmFkb2JlLmNvbS94YXAvMS4wL3NUeXBlL1Jlc291cmNlUmVmIyIgeG1wOkNyZWF0b3JUb29sPSJBZG9iZSBQaG90b3Nob3AgMjEuMCAoTWFjaW50b3NoKSJ4bXBNTTpJbnN0YW5jZUlEPSJ4bXAuaWlkOkUzQUE1NDkxQTlEMTFFQTk1NzA4NjJCQUVCRUY5QkUi/yB4bXBNTTpEb2N1bWVudElEPSJ4bXAuZGlkOkUzQUE1NEZBMUE5RDExRUE5NzA4NjJCQUVCRUY5QkUiPiA8eG1wTU06RGVyaXZlZEZyb20gc3RSZWY6aW5zdGFuY2VJRD14bXAuaWlkOkUzQUE1NEY3MUE5RDExRUE5NTcwODYyQkFFRUY5QkUiIHN0UmVmOmRvY3VtZW50SUQ9InhtcC5kaWQ6RTNBQTU0RjgxQTlEMTFFQTk1NzA4NjJCQUVCRUY5QkUiPiA8L3JkZjpEZXNjcmlwdGlvbj4gPC9yZGY6UkRGPiA8L3g6eG1wbWV0YT4gPD9wYWNrZXQgZW5kPf8iciI/PgH//v38+/r5+Pf29fTz8vHw7+7t7Ovq6ejn5uXk4+Lh4N/e3dzb2tnY19bV1NPS0dDPzs3My8rJyMfGxcTDwsHAv769vLu6ubi3trW0s7KxsK+urayrqqmop6alpKOioaCfnp2cm5qZl5aVlJOSkZCPjo2Mi4qJiIeGhYSDgoGAf359fHt6eXh3dnV0c3JxcG9ubWxramloZ2ZlZGNiYWBfXl1cW1pZWFdWVVRTUlFQT05NTEtKSUhHRkVEQ0JBQD8+PTw7Ojk4NzY1NDMyMTAvLi0sKyopKCcmJSQjIiEgHx4dHBsaGRgXFhUUExIREA8ODQwLCgkIBwYGBQQDAgEAACwAAAAAfwCAAIGH/4iG//////8AAAAC/pSPqcvtD6OctM6Ard68e4GF30iWWyia6soaKNrG8vnC840z9Zv3/V7zCWPA3fBYKgKRTI5y2YxenlCpVUctXreI7JO79X7BUjGVvAJMzWP0CACPsL3uD/z+mNPrnDs+r3fGZ+HnBxjYNhhRWHiIqKUIwcjo+BgU6TBJWWlpg6mgOcnZmfJ5EKo5Smp6iprqQGpk6hqquopJi2priZurCxvryedLuxuoSFwMHBwwmJxrPDf8DL18i0btCxHslk0cvUfmnQwuCDb+3BArjk6+sH7enp7AzSU/3wW/de+er2/F7xu9elcCahtIUIrBav7+RVmorOE1hRB/SZzYpKLF/gPMMgDU+Opip4IgRSFMmLHkJpG8Pqo0dNIhk5eNYmKcSfMPy0ckc6qxOdJlTgUdmwmlSbRjz6FAW1L0mZTZUqRNeR59GRUlTqhVEU3F2vXYVZVZZSLxGSesnq9k1UobW7LszbNo5QZ9ynSnV7gg7Tp9WNctG7ZxBZsh3NewGMQa/VrFS1WvWMhgJa/l21hxOMBcLb+l3NbzYMwVHe8FXVj0YdIQTU/mnJejUtYLXV9GnVj1YtoGbX+GHVm2VN4BfY/GnVn35pSdhWul29z53CNof74zSz0wlrvAK6v7yzy2td/hg2+73T20BPLlva8xR5yfE/jIS3eAZE87K0L6Y/dTqO6fBgAGyJ94BE5g4IEIqqdgBQw26GByEG5g34Qd1GahB71laMc9HJIgz4cgoiNiCeOUaEI2KKqAz4ojHuRiigzFKONGNNZo0o1phKTjjjX12MKPQLIA05AxpGVkkgcUAAAh+QQFBQACACH/C3htcCBkYXRheG1w/z94cGFja2V0IGJlZ2luPSLvu78iIGlkPSJXNU0wTXBDZWhpSHpyZVN6TlRjemtjOWQiPz4gPHg6eG1wbXRhIHhtbG5zOng9ImFkb2JlOm5zOm1ldGEvIiB4OnhtcHRrPSJBZG9iZSBYTVAgQ29yZSA1LjYtYzE0OCA3OS4xNjQwMzYsIDIwMTkvMDgvMTMtMDE6MDY6NTcgICAgICAgICI+PHJkZjpSREYgeG1sbnM6cmRmPSJodHRwOi8vd3d3Lncub3JnLzE5OTkvMDIvMjItcmRmLXN5bnRheC1ucyMiPiA8cmRmOkRlc2NyaXB0aW9uIHJmOmFib3V0PSIiIP94bWxuczp4bXA9Imh0dHA6Ly9ucy5hZG9iZS5jb20veGFwLzEuMC8iIHhtbG5zOnhtcE1NPSJodHRwOi8vbnMuYWRvYmUuY29tL3hhcC8xLjAvbW0vIiB4bW5zOnN0UmVmPSJodHRwOi8vbnMuYWRvYmUuY29tL3hhcC8xLjAvc1R5cGUvUmVzb3VyY2VSZWYjIiB4bXA6Q3JlYXRvclRvb2w9IkFkb2JlIFBob3Rvc2hvcCAyMS4wIChNYWNpbnRvc2gpInhtcE1NOkluc3RhbmNlSUQ9InhtcC5paWQ6RTNBQTU0OTFBOUQxMUVBOTU3MDg2MkJBRUJFRjlCRSL/IHhtcE1NOkRvY3VtZW50SUQ9InhtcC5kaWQ6RTNBQTU0RkExQTlEMTFFQTk3MDg2MkJBRUJFRjlCRSI+IDx4bXBNTTpEZXJpdmVkRnJvbSBzdFJlZjppbnN0YW5jZUlEPXhtcC5paWQ6RTNBQTU0RjcxQTlEMTFFQTk1NzA4NjJCQUVFRjlCRSIgc3RSZWY6ZG9jdW1lbnRJRD0ieG1wLmRpZDpFM0FBNTRGODFBOUQxMUVBOTU3MDg2MkJBRUJFRjlCRSI+IDwvcmRmOkRlc2NyaXB0aW9uPiA8L3JkZjpSREY+IDwveDp4bXBtZXRhPiA8P3BhY2tldCBlbmQ9/yJyIj8+Af/+/fz7+vn49/b19PPy8fDv7u3s6+rp6Ofm5eTj4uHg397d3Nva2djX1tXU09LR0M/OzczLysnIx8bFxMPCwcC/vr28u7q5uLe2tbSzsrGwr66trKuqqainpqWko6KhoJ+enZybmpmXlpWUk5KRkI+OjYyLiomIh4aFhIOCgYB/fn18e3p5eHd2dXRzcnFwb25tbGtqaWhnZmVkY2JhYF9eXVxbWllYV1ZVVFNSUVBPTk1MS0pJSEdGRURDQkFAPz49PDs6OTg3NjU0MzIxMC8uLSwrKikoJyYlJCMiISAfHh0cGxoZGBcWFRQTEhEQDw4NDAsKCQgHBgYFBAMCAQAALAAAAAB/AIAAgYu1/ob//////wAAAAL+lI+py+0Po5y0ToCt3rx7gYXfSJZbKJrqyhoo2sby+cLzjTP1m/f9XvMJY8Dd8FgqApFMjnLZjF6eUKlVRy1et4jsk7v1fsFSMZW8CkzNY/QoAI+wve4P/P6Y0+ucOz6vd8Zn4ecHGNg2GFFYeIiopQjByOj4GBTpMElZaWmDqaA5ydmZ8nkQqjlKanqKmupAamTqGqq6ikmLamuJm6sLG+vJ50u7G6hIXAwcDDCYnGs8N/wMvXyLRu0LEeyWTRy9R+adDC4INv7cECuOTr6wft6ensDNJT/fBb91756vb8XvG716VwJqG0hQisFq/v5FWais4TWFEH9JnNikosX+A8wyANT46mKngiBFIUyYseQmkbw+qjR00iGTl41iYpxJ8w/LRyRzqrE50mVOBR2bCaVJtGPPoUBbUvSZlNlSpE15Hn0ZFSVOqFURTcXa9dhVlVllIvEZJ6yer2TVShtbsuzNs2jlBn3KdKdXuCDtOn1Y1y0btnEFmyHc17AYxBr9WsVLVa9YyGAlr+XbWHE4wFwtv6Xc1vNgzBUd7wVdWPRh0hBNT+acl6NS1gtdX0adWPVi2gZtf4YdWbZU3gF9j8adWffmlJ2Fa6Xb3PncI2h/vjNLPTCWu8Arq/vLPLa13+GDb7vdPbQE8uW9rzFHnJ8T+MhLd4BkTzsrQvpj91Oo7p8GAAbIn3gETmDggQiqp2AFDDboYHIQbmDfhB3UZqEHvWVoxz0ckiDPhyCiI2IJ45RoQjYoqoDPiiMe5GKKDMUo40Y01mjSjWmEpOOONfXYwo9AsgDTkDGkZWSSBxQAACH5BAUFAAIAIf8LeG1wIGRhdGF4bXD/P3hwYWNrZXQgYmVnaW49Iu+7vyIgaWQ9Ilc1TTBNcENlaGlIenJlU3pOVGN6a2M5ZCI/PiA8eDp4bXBtdGEgeG1sbnM6eD0iYWRvYmU6bnM6bWV0YS8iIHg6eG1wdGs9IkFkb2JlIFhNUCBDb3JlIDUuNi1jMTQ4IDc5LjE2NDAzNiwgMjAxOS8wOC8xMy0wMTowNjo1NyAgICAgICAgIj48cmRmOlJERiB4bWxuczpyZGY9Imh0dHA6Ly93d3cudy5vcmcvMTk5OS8wMi8yMi1yZGYtc3ludGF4LW5zIyI+IDxyZGY6RGVzY3JpcHRpb24gcmY6YWJvdXQ9IiIg/3htbG5zOnhtcD0iaHR0cDovL25zLmFkb2JlLmNvbS94YXAvMS4wLyIgeG1sbnM6eG1wTU09Imh0dHA6Ly9ucy5hZG9iZS5jb20veGFwLzEuMC9tbS8iIHhtbnM6c3RSZWY9Imh0dHA6Ly9ucy5hZG9iZS5jb20veGFwLzEuMC9zVHlwZS9SZXNvdXJjZVJlZiMiIHhtcDpDcmVhdG9yVG9vbD0iQWRvYmUgUGhvdG9zaG9wIDIxLjAgKE1hY2ludG9zaCkieG1wTU06SW5zdGFuY2VJRD0ieG1wLmlpZDpFM0FBNTQ5MUE5RDExRUE5NTcwODYyQkFFQkVGOUJFIv8geG1wTU06RG9jdW1lbnRJRD0ieG1wLmRpZDpFM0FBNTRGQTFBOUQxMUVBOTcwODYyQkFFQkVGOUJFIj4gPHhtcE1NOkRlcml2ZWRGcm9tIHN0UmVmOmluc3RhbmNlSUQ9eG1wLmlpZDpFM0FBNTRGNzFBOUQxMUVBOTU3MDg2MkJBRUVGOUJFIiBzdFJlZjpkb2N1bWVudElEPSJ4bXAuZGlkOkUzQUE1NEY4MUE5RDExRUE5NTcwODYyQkFFQkVGOUJFIj4gPC9yZGY6RGVzY3JpcHRpb24+IDwvcmRmOlJERj4gPC94OnhtcG1ldGE+IDw/cGFja2V0IGVuZD3/InIiPz4B//79/Pv6+fj39vX08/Lx8O/u7ezr6uno5+bl5OPi4eDf3t3c29rZ2NfW1dTT0tHQz87NzMvKycjHxsXEw8LBwL++vby7urm4t7a1tLOysbCvrq2sq6qpqKempaSjoqGgn56dnJuamZeWlZSTkpGQj46NjIuKiYiHhoWEg4KBgH9+fXx7enl4d3Z1dHNycXBvbm1sa2ppaGdmZWRjYmFgX15dXFtaWVhXVlVUU1JRUE9OTUxLSklIR0ZFRENCQUA/Pj08Ozo5ODc2NTQzMjEwLy4tLCsqKSgnJiUkIyIhIB8eHRwbGhkYFxYVFBMSERAPDg0MCwoJCAcGBgUEAwIBAAAsAAAAAH8AgACBi7X+14z/////AAAAAv6Uj6nL7Q+jnLTOgK3evHuBhd9IllsomurKGijaxvL5wvONM/Wb9/1e8wljwN3wWCoCkUyOctmMXp5QqVVHLV63iOyTu/V+wVIxlbwCTM1j9AgAj7C97g/8/pjT65w7Pq93xmfh5wcY2DYYUVh4iKilCMHI6PgYFOkwSVlpaYOpoDnJ2ZnyeRCqOUpqeoqa6kBqZOoaqrqKSYtqa4mbqwsb68nnS7sbqEhcDBwcMJicazw3/Ay9fItG7QsR7JZNHL1H5p0MLgg2/twQK45OvrB+3p6ewM0lP98Fv3Xvnq9vxe8bvXpXAmobSFCKwWr+/kVZqKzhNYUQf0mc2KSixf4DzDIA1PjqYqeCIEUhTJix5CaRvD6qNHTSIZOXjWJinEnzD8tHJHOqsTnSZU4FHZsJpUm0Y8+hQFtS9JmU2VKkTXkefRkVJU6oVRFNxdr12FWVWWUi8RknrJ6vZNVKG1uy7M2zaOUGfcp0p1e4IO06fVjXLRu2cQWbIdzXsBjEGv1axUtVr1jIYCWv5dtYcTjAXC2/pdzW82DMFR3vBV1Y9GHSEE1P5pyXo1LWC11fRp1Y9WLaBm1/hh1ZtlTeAX2Pxp1Z9+aUnYVrpdvc+dwjaH++M0s9MJa7wCur+8s8trXf4YNvu909tATy5b2vMUecnxP4yEt3gGRPOytC+mP3U6junwYABsifeAROYOCBCKqnYAUMNuhgchBuYN+EHdRmoQe9ZWjHPRySIM+HIKIjYgnjlGhCNiiqgM+KIx7kYooMxSjjRjTWaNKNaYSk44419djCj0CyANOQMaRlZJIHFAAAIfkEBQUAAgAh/wt4bXAgZGF0YXhtcP8/eHBhY2tldCBiZWdpbj0i77u/IiBpZD0iVzVNME1wQ2VoaUh6cmVTek5UY3prYzlkIj8+IDx4OnhtcG10YSB4bWxuczp4PSJhZG9iZTpuczptZXRhLyIgeDp4bXB0az0iQWRvYmUgWE1QIENvcmUgNS42LWMxNDggNzkuMTY0MDM2LCAyMDE5LzA4LzEzLTAxOjA2OjU3ICAgICAgICAiPjxyZGY6UkRGIHhtbG5zOnJkZj0iaHR0cDovL3d3dy53Lm9yZy8xOTk5LzAyLzIyLXJkZi1zeW50YXgtbnMjIj4gPHJkZjpEZXNjcmlwdGlvbiByZjphYm91dD0iIiD/eG1sbnM6eG1wPSJodHRwOi8vbnMuYWRvYmUuY29tL3hhcC8xLjAvIiB4bWxuczp4bXBNTT0iaHR0cDovL25zLmFkb2JlLmNvbS94YXAvMS4wL21tLyIgeG1uczpzdFJlZj0iaHR0cDovL25zLmFkb2JlLmNvbS94YXAvMS4wL3NUeXBlL1Jlc291cmNlUmVmIyIgeG1wOkNyZWF0b3JUb29sPSJBZG9iZSBQaG90b3Nob3AgMjEuMCAoTWFjaW50b3NoKSJ4bXBNTTpJbnN0YW5jZUlEPSJ4bXAuaWlkOkUzQUE1NDkxQTlEMTFFQTk1NzA4NjJCQUVCRUY5QkUi/yB4bXBNTTpEb2N1bWVudElEPSJ4bXAuZGlkOkUzQUE1NEZBMUE5RDExRUE5NzA4NjJCQUVCRUY5QkUiPiA8eG1wTU06RGVyaXZlZEZyb20gc3RSZWY6aW5zdGFuY2VJRD14bXAuaWlkOkUzQUE1NEY3MUE5RDExRUE5NTcwODYyQkFFRUY5QkUiIHN0UmVmOmRvY3VtZW50SUQ9InhtcC5kaWQ6RTNBQTU0RjgxQTlEMTFFQTk1NzA4NjJCQUVCRUY5QkUiPiA8L3JkZjpEZXNjcmlwdGlvbj4gPC9yZGY6UkRGPiA8L3g6eG1wbWV0YT4gPD9wYWNrZXQgZW5kPf8iciI/PgH//v38+/r5+Pf29fTz8vHw7+7t7Ovq6ejn5uXk4+Lh4N/e3dzb2tnY19bV1NPS0dDPzs3My8rJyMfGxcTDwsHAv769vLu6ubi3trW0s7KxsK+urayrqqmop6alpKOioaCfnp2cm5qZl5aVlJOSkZCPjo2Mi4qJiIeGhYSDgoGAf359fHt6eXh3dnV0c3JxcG9ubWxramloZ2ZlZGNiYWBfXl1cW1pZWFdWVVRTUlFQT05NTEtKSUhHRkVEQ0JBQD8+PTw7Ojk4NzY1NDMyMTAvLi0sKyopKCcmJSQjIiEgHx4dHBsaGRgXFhUUExIREA8ODQwLCgkIBwYGBQQDAgEAACwAAAAAfwCAAIHXjP//jP////8AAAAC/pSPqcvtD6OctM6Ard68e4GF30iWWyia6soaKNrG8vnC840z9Zv3/V7zCWPA3fBYKgKRTI5y2YxenlCpVUctXreI7JO79X7BUjGVvAJMzWP0CACPsL3uD/z+mNPrnDs+r3fGZ+HnBxjYNhhRWHiIqKUIwcjo+BgU6TBJWWlpg6mgOcnZmfJ5EKo5Smp6iprqQGpk6hqquopJi2priZurCxvryedLuxuoSFwMHBwwmJxrPDf8DL18i0btCxHslk0cvUfmnQwuCDb+3BArjk6+sH7enp7AzSU/3wW/de+er2/F7xu9elcCahtIUIrBav7+RVmorOE1hRB/SZzYpKLF/gPMMgDU+Opip4IgRSFMmLHkJpG8Pqo0dNIhk5eNYmKcSfMPy0ckc6qxOdJlTgUdmwmlSbRjz6FAW1L0mZTZUqRNeR59GRUlTqhVEU3F2vXYVZVZZSLxGSesnq9k1UobW7LszbNo5QZ9ynSnV7gg7Tp9WNctG7ZxBZsh3NewGMQa/VrFS1WvWMhgJa/l21hxOMBcLb+l3NbzYMwVHe8FXVj0YdIQTU/mnJejUtYLXV9GnVj1YtoGbX+GHVm2VN4BfY/GnVn35pSdhWul29z53CNof74zSz0wlrvAK6v7yzy2td/hg2+73T20BPLlva8xR5yfE/jIS3eAZE87K0L6Y/dTqO6fBgAGyJ94BE5g4IEIqqdgBQw26GByEG5g34Qd1GahB71laMc9HJIgz4cgoiNiCeOUaEI2KKqAz4ojHuRiigzFKONGNNZo0o1phKTjjjX12MKPQLIA05AxpGVkkgcUAAAh+QQFBQACACH/C3htcCBkYXRheG1w/z94cGFja2V0IGJlZ2luPSLvu78iIGlkPSJXNU0wTXBDZWhpSHpyZVN6TlRjemtjOWQiPz4gPHg6eG1wbXRhIHhtbG5zOng9ImFkb2JlOm5zOm1ldGEvIiB4OnhtcHRrPSJBZG9iZSBYTVAgQ29yZSA1LjYtYzE0OCA3OS4xNjQwMzYsIDIwMTkvMDgvMTMtMDE6MDY6NTcgICAgICAgICI+PHJkZjpSREYgeG1sbnM6cmRmPSJodHRwOi8vd3d3Lncub3JnLzE5OTkvMDIvMjItcmRmLXN5bnRheC1ucyMiPiA8cmRmOkRlc2NyaXB0aW9uIHJmOmFib3V0PSIiIP94bWxuczp4bXA9Imh0dHA6Ly9ucy5hZG9iZS5jb20veGFwLzEuMC8iIHhtbG5zOnhtcE1NPSJodHRwOi8vbnMuYWRvYmUuY29tL3hhcC8xLjAvbW0vIiB4bW5zOnN0UmVmPSJodHRwOi8vbnMuYWRvYmUuY29tL3hhcC8xLjAvc1R5cGUvUmVzb3VyY2VSZWYjIiB4bXA6Q3JlYXRvclRvb2w9IkFkb2JlIFBob3Rvc2hvcCAyMS4wIChNYWNpbnRvc2gpInhtcE1NOkluc3RhbmNlSUQ9InhtcC5paWQ6RTNBQTU0OTFBOUQxMUVBOTU3MDg2MkJBRUJFRjlCRSL/IHhtcE1NOkRvY3VtZW50SUQ9InhtcC5kaWQ6RTNBQTU0RkExQTlEMTFFQTk3MDg2MkJBRUJFRjlCRSI+IDx4bXBNTTpEZXJpdmVkRnJvbSBzdFJlZjppbnN0YW5jZUlEPXhtcC5paWQ6RTNBQTU0RjcxQTlEMTFFQTk1NzA4NjJCQUVFRjlCRSIgc3RSZWY6ZG9jdW1lbnRJRD0ieG1wLmRpZDpFM0FBNTRGODFBOUQxMUVBOTU3MDg2MkJBRUJFRjlCRSI+IDwvcmRmOkRlc2NyaXB0aW9uPiA8L3JkZjpSREY+IDwveDp4bXBtZXRhPiA8P3BhY2tldCBlbmQ9/yJyIj8+Af/+/fz7+vn49/b19PPy8fDv7u3s6+rp6Ofm5eTj4uHg397d3Nva2djX1tXU09LR0M/OzczLysnIx8bFxMPCwcC/vr28u7q5uLe2tbSzsrGwr66trKuqqainpqWko6KhoJ+enZybmpmXlpWUk5KRkI+OjYyLiomIh4aFhIOCgYB/fn18e3p5eHd2dXRzcnFwb25tbGtqaWhnZmVkY2JhYF9eXVxbWllYV1ZVVFNSUVBPTk1MS0pJSEdGRURDQkFAPz49PDs6OTg3NjU0MzIxMC8uLSwrKikoJyYlJCMiISAfHh0cGxoZGBcWFRQTEhEQDw4NDAsKCQgHBgYFBAMCAQAALAAAAAB/AIAAgf9n9f+M/////wAAAAL+lI+py+0Po5y0ToCt3rx7gYXfSJZbKJrqyhoo2sby+cLzjTP1m/f9XvMJY8Dd8FgqApFMjnLZjF6eUKlVRy1et4jsk7v1fsFSMZW8CkzNY/QoAI+wve4P/P6Y0+ucOz6vd8Zn4ecHGNg2GFFYeIiopQjByOj4GBTpMElZaWmDqaA5ydmZ8nkQqjlKanqKmupAamTqGqq6ikmLamuJm6sLG+vJ50u7G6hIXAwcDDCYnGs8N/wMvXyLRu0LEeyWTRy9R+adDC4INv7cECuOTr6wft6ensDNJT/fBb91756vb8XvG716VwJqG0hQisFq/v5FWais4TWFEH9JnNikosX+A8wyANT46mKngiBFIUyYseQmkbw+qjR00iGTl41iYpxJ8w/LRyRzqrE50mVOBR2bCaVJtGPPoUBbUvSZlNlSpE15Hn0ZFSVOqFURTcXa9dhVlVllIvEZJ6yer2TVShtbsuzNs2jlBn3KdKdXuCDtOn1Y1y0btnEFmyHc17AYxBr9WsVLVa9YyGAlr+XbWHE4wFwtv6Xc1vNgzBUd7wVdWPRh0hBNT+acl6NS1gtdX0adWPVi2gZtf4YdWbZU3gF9j8adWffmlJ2Fa6Xb3PncI2h/vjNLPTCWu8Arq/vLPLa13+GDb7vdPbQE8uW9rzFHnJ8T+MhLd4BkTzsrQvpj91Oo7p8GAAbIn3gETmDggQiqp2AFDDboYHIQbmDfhB3UZqEHvWVoxz0ckiDPhyCiI2IJ45RoQjYoqoDPiiMe5GKKDMUo40Y01mjSjWmEpOOONfXYwo9AsgDTkDGkZWSSBxQAACH5BAUFAAIAIf8LeG1wIGRhdGF4bXD/P3hwYWNrZXQgYmVnaW49Iu+7vyIgaWQ9Ilc1TTBNcENlaGlIenJlU3pOVGN6a2M5ZCI/PiA8eDp4bXBtdGEgeG1sbnM6eD0iYWRvYmU6bnM6bWV0YS8iIHg6eG1wdGs9IkFkb2JlIFhNUCBDb3JlIDUuNi1jMTQ4IDc5LjE2NDAzNiwgMjAxOS8wOC8xMy0wMTowNjo1NyAgICAgICAgIj48cmRmOlJERiB4bWxuczpyZGY9Imh0dHA6Ly93d3cudy5vcmcvMTk5OS8wMi8yMi1yZGYtc3ludGF4LW5zIyI+IDxyZGY6RGVzY3JpcHRpb24gcmY6YWJvdXQ9IiIg/3htbG5zOnhtcD0iaHR0cDovL25zLmFkb2JlLmNvbS94YXAvMS4wLyIgeG1sbnM6eG1wTU09Imh0dHA6Ly9ucy5hZG9iZS5jb20veGFwLzEuMC9tbS8iIHhtbnM6c3RSZWY9Imh0dHA6Ly9ucy5hZG9iZS5jb20veGFwLzEuMC9zVHlwZS9SZXNvdXJjZVJlZiMiIHhtcDpDcmVhdG9yVG9vbD0iQWRvYmUgUGhvdG9zaG9wIDIxLjAgKE1hY2ludG9zaCkieG1wTU06SW5zdGFuY2VJRD0ieG1wLmlpZDpFM0FBNTQ5MUE5RDExRUE5NTcwODYyQkFFQkVGOUJFIv8geG1wTU06RG9jdW1lbnRJRD0ieG1wLmRpZDpFM0FBNTRGQTFBOUQxMUVBOTcwODYyQkFFQkVGOUJFIj4gPHhtcE1NOkRlcml2ZWRGcm9tIHN0UmVmOmluc3RhbmNlSUQ9eG1wLmlpZDpFM0FBNTRGNzFBOUQxMUVBOTU3MDg2MkJBRUVGOUJFIiBzdFJlZjpkb2N1bWVudElEPSJ4bXAuZGlkOkUzQUE1NEY4MUE5RDExRUE5NTcwODYyQkFFQkVGOUJFIj4gPC9yZGY6RGVzY3JpcHRpb24+IDwvcmRmOlJERj4gPC94OnhtcG1ldGE+IDw/cGFja2V0IGVuZD3/InIiPz4B//79/Pv6+fj39vX08/Lx8O/u7ezr6uno5+bl5OPi4eDf3t3c29rZ2NfW1dTT0tHQz87NzMvKycjHxsXEw8LBwL++vby7urm4t7a1tLOysbCvrq2sq6qpqKempaSjoqGgn56dnJuamZeWlZSTkpGQj46NjIuKiYiHhoWEg4KBgH9+fXx7enl4d3Z1dHNycXBvbm1sa2ppaGdmZWRjYmFgX15dXFtaWVhXVlVUU1JRUE9OTUxLSklIR0ZFRENCQUA/Pj08Ozo5ODc2NTQzMjEwLy4tLCsqKSgnJiUkIyIhIB8eHRwbGhkYFxYVFBMSERAPDg0MCwoJCAcGBgUEAwIBAAAsAAAAAH8AgACB/my3/2f1////AAAAAv6Uj6nL7Q+jnLROgK3evHuBhd9IllsomurKGijaxvL5wvONM/Wb9/1e8wljwN3wWCoCkUyOctmMXp5QqVVHLV63iOyTu/V+wVIxlbwKTM1j9CgAj7C97g/8/pjT65w7Pq93xmfh5wcY2DYYUVh4iKilCMHI6PgYFOkwSVlpaYOpoDnJ2ZnyeRCqOUpqeoqa6kBqZOoaqrqKSYtqa4mbqwsb68nnS7sbqEhcDBwMMJicazw3/Ay9fItG7QsR7JZNHL1H5p0MLgg2/twQK45OvrB+3p6ewM0lP98Fv3Xvnq9vxe8bvXpXAmobSFCKwWr+/kVZqKzhNYUQf0mc2KSixf4DzDIA1PjqYqeCIEUhTJix5CaRvD6qNHTSIZOXjWJinEnzD8tHJHOqsTnSZU4FHZsJpUm0Y8+hQFtS9JmU2VKkTXkefRkVJU6oVRFNxdr12FWVWWUi8RknrJ6vZNVKG1uy7M2zaOUGfcp0p1e4IO06fVjXLRu2cQWbIdzXsBjEGv1axUtVr1jIYCWv5dtYcTjAXC2/pdzW82DMFR3vBV1Y9GHSEE1P5pyXo1LWC11fRp1Y9WLaBm1/hh1ZtlTeAX2Pxp1Z9+aUnYVrpdvc+dwjaH++M0s9MJa7wCur+8s8trXf4YNvu909tATy5b2vMUecnxP4yEt3gGRPOytC+mP3U6junwYABsifeAROYOCBCKqnYAUMNuhgchBuYN+EHdRmoQe9ZWjHPRySIM+HIKIjYgnjlGhCNiiqgM+KIx7kYooMxSjjRjTWaNKNaYSk44419djCj0CyANOQMaRlZJIHFAAAIfkEBQUAAgAh/wt4bXAgZGF0YXhtcP8/eHBhY2tldCBiZWdpbj0i77u/IiBpZD0iVzVNME1wQ2VoaUh6cmVTek5UY3prYzlkIj8+IDx4OnhtcG10YSB4bWxuczp4PSJhZG9iZTpuczptZXRhLyIgeDp4bXB0az0iQWRvYmUgWE1QIENvcmUgNS42LWMxNDggNzkuMTY0MDM2LCAyMDE5LzA4LzEzLTAxOjA2OjU3ICAgICAgICAiPjxyZGY6UkRGIHhtbG5zOnJkZj0iaHR0cDovL3d3dy53Lm9yZy8xOTk5LzAyLzIyLXJkZi1zeW50YXgtbnMjIj4gPHJkZjpEZXNjcmlwdGlvbiByZjphYm91dD0iIiD/eG1sbnM6eG1wPSJodHRwOi8vbnMuYWRvYmUuY29tL3hhcC8xLjAvIiB4bWxuczp4bXBNTT0iaHR0cDovL25zLmFkb2JlLmNvbS94YXAvMS4wL21tLyIgeG1uczpzdFJlZj0iaHR0cDovL25zLmFkb2JlLmNvbS94YXAvMS4wL3NUeXBlL1Jlc291cmNlUmVmIyIgeG1wOkNyZWF0b3JUb29sPSJBZG9iZSBQaG90b3Nob3AgMjEuMCAoTWFjaW50b3NoKSJ4bXBNTTpJbnN0YW5jZUlEPSJ4bXAuaWlkOkUzQUE1NDkxQTlEMTFFQTk1NzA4NjJCQUVCRUY5QkUi/yB4bXBNTTpEb2N1bWVudElEPSJ4bXAuZGlkOkUzQUE1NEZBMUE5RDExRUE5NzA4NjJCQUVCRUY5QkUiPiA8eG1wTU06RGVyaXZlZEZyb20gc3RSZWY6aW5zdGFuY2VJRD14bXAuaWlkOkUzQUE1NEY3MUE5RDExRUE5NTcwODYyQkFFRUY5QkUiIHN0UmVmOmRvY3VtZW50SUQ9InhtcC5kaWQ6RTNBQTU0RjgxQTlEMTFFQTk1NzA4NjJCQUVCRUY5QkUiPiA8L3JkZjpEZXNjcmlwdGlvbj4gPC9yZGY6UkRGPiA8L3g6eG1wbWV0YT4gPD9wYWNrZXQgZW5kPf8iciI/PgH//v38+/r5+Pf29fTz8vHw7+7t7Ovq6ejn5uXk4+Lh4N/e3dzb2tnY19bV1NPS0dDPzs3My8rJyMfGxcTDwsHAv769vLu6ubi3trW0s7KxsK+urayrqqmop6alpKOioaCfnp2cm5qZl5aVlJOSkZCPjo2Mi4qJiIeGhYSDgoGAf359fHt6eXh3dnV0c3JxcG9ubWxramloZ2ZlZGNiYWBfXl1cW1pZWFdWVVRTUlFQT05NTEtKSUhHRkVEQ0JBQD8+PTw7Ojk4NzY1NDMyMTAvLi0sKyopKCcmJSQjIiEgHx4dHBsaGRgXFhUUExIREA8ODQwLCgkIBwYGBQQDAgEAACwAAAAAfwCAAIH/aGf+bLf///8AAAAC/pSPqcvtD6OctE6Ard68e4GF30iWWyia6soaKNrG8vnC840z9Zv3/V7zCWPA3fBYKgKRTI5y2YxenlCpVUctXreI7JO79X7BUjGVvApMzWP0KACPsL3uD/z+mNPrnDs+r3fGZ+HnBxjYNhhRWHiIqKUIwcjo+BgU6TBJWWlpg6mgOcnZmfJ5EKo5Smp6iprqQGpk6hqquopJi2priZurCxvryedLuxuoSFwMHAwwmJxrPDf8DL18i0btCxHslk0cvUfmnQwuCDb+3BArjk6+sH7enp7AzSU/3wW/de+er2/F7xu9elcCahtIUIrBav7+RVmorOE1hRB/SZzYpKLF/gPMMgDU+Opip4IgRSFMmLHkJpG8Pqo0dNIhk5eNYmKcSfMPy0ckc6qxOdJlTgUdmwmlSbRjz6FAW1L0mZTZUqRNeR59GRUlTqhVEU3F2vXYVZVZZSLxGSesnq9k1UobW7LszbNo5QZ9ynSnV7gg7Tp9WNctG7ZxBZsh3NewGMQa/VrFS1WvWMhgJa/l21hxOMBcLb+l3NbzYMwVHe8FXVj0YdIQTU/mnJejUtYLXV9GnVj1YtoGbX+GHVm2VN4BfY/GnVn35pSdhWul29z53CNof74zSz0wlrvAK6v7yzy2td/hg2+73T20BPLlva8xR5yfE/jIS3eAZE87K0L6Y/dTqO6fBgAGyJ94BE5g4IEIqqdgBQw26GByEG5g34Qd1GahB71laMc9HJIgz4cgoiNiCeOUaEI2KKqAz4ojHuRiigzFKONGNNZo0o1phKTjjjX12MKPQLIA05AxpGVkkgcUAAAh+QQFBQACACH/C3htcCBkYXRheG1w/z94cGFja2V0IGJlZ2luPSLvu78iIGlkPSJXNU0wTXBDZWhpSHpyZVN6TlRjemtjOWQiPz4gPHg6eG1wbXRhIHhtbG5zOng9ImFkb2JlOm5zOm1ldGEvIiB4OnhtcHRrPSJBZG9iZSBYTVAgQ29yZSA1LjYtYzE0OCA3OS4xNjQwMzYsIDIwMTkvMDgvMTMtMDE6MDY6NTcgICAgICAgICI+PHJkZjpSREYgeG1sbnM6cmRmPSJodHRwOi8vd3d3Lncub3JnLzE5OTkvMDIvMjItcmRmLXN5bnRheC1ucyMiPiA8cmRmOkRlc2NyaXB0aW9uIHJmOmFib3V0PSIiIP94bWxuczp4bXA9Imh0dHA6Ly9ucy5hZG9iZS5jb20veGFwLzEuMC8iIHhtbG5zOnhtcE1NPSJodHRwOi8vbnMuYWRvYmUuY29tL3hhcC8xLjAvbW0vIiB4bW5zOnN0UmVmPSJodHRwOi8vbnMuYWRvYmUuY29tL3hhcC8xLjAvc1R5cGUvUmVzb3VyY2VSZWYjIiB4bXA6Q3JlYXRvclRvb2w9IkFkb2JlIFBob3Rvc2hvcCAyMS4wIChNYWNpbnRvc2gpInhtcE1NOkluc3RhbmNlSUQ9InhtcC5paWQ6RTNBQTU0OTFBOUQxMUVBOTU3MDg2MkJBRUJFRjlCRSL/IHhtcE1NOkRvY3VtZW50SUQ9InhtcC5kaWQ6RTNBQTU0RkExQTlEMTFFQTk3MDg2MkJBRUJFRjlCRSI+IDx4bXBNTTpEZXJpdmVkRnJvbSBzdFJlZjppbnN0YW5jZUlEPXhtcC5paWQ6RTNBQTU0RjcxQTlEMTFFQTk1NzA4NjJCQUVFRjlCRSIgc3RSZWY6ZG9jdW1lbnRJRD0ieG1wLmRpZDpFM0FBNTRGODFBOUQxMUVBOTU3MDg2MkJBRUJFRjlCRSI+IDwvcmRmOkRlc2NyaXB0aW9uPiA8L3JkZjpSREY+IDwveDp4bXBtZXRhPiA8P3BhY2tldCBlbmQ9/yJyIj8+Af/+/fz7+vn49/b19PPy8fDv7u3s6+rp6Ofm5eTj4uHg397d3Nva2djX1tXU09LR0M/OzczLysnIx8bFxMPCwcC/vr28u7q5uLe2tbSzsrGwr66trKuqqainpqWko6KhoJ+enZybmpmXlpWUk5KRkI+OjYyLiomIh4aFhIOCgYB/fn18e3p5eHd2dXRzcnFwb25tbGtqaWhnZmVkY2JhYF9eXVxbWllYV1ZVVFNSUVBPTk1MS0pJSEdGRURDQkFAPz49PDs6OTg3NjU0MzIxMC8uLSwrKikoJyYlJCMiISAfHh0cGxoZGBcWFRQTEhEQDw4NDAsKCQgHBgYFBAMCAQAALAAAAAB/AIAAgf9oZ/+Ni////wAAAAL+lI+py+0Po5y0zoCt3rx7gYXfSJZbKJrqyhoo2sby+cLzjTP1m/f9XvMJY8Dd8FgqApFMjnLZjF6eUKlVRy1et4jsk7v1fsFSMZW8AkzNY/QIAI+wve4P/P6Y0+ucOz6vd8Zn4ecHGNg2GFFYeIiopQjByOj4GBTpMElZaWmDqaA5ydmZ8nkQqjlKanqKmupAamTqGqq6ikmLamuJm6sLG+vJ50u7G6hIXAwcHDCYnGs8N/wMvXyLRu0LEeyWTRy9R+adDC4INv7cECuOTr6wft6ensDNJT/fBb91756vb8XvG716VwJqG0hQisFq/v5FWais4TWFEH9JnNikosX+A8wyANT46mKngiBFIUyYseQmkbw+qjR00iGTl41iYpxJ8w/LRyRzqrE50mVOBR2bCaVJtGPPoUBbUvSZlNlSpE15Hn0ZFSVOqFURTcXa9dhVlVllIvEZJ6yer2TVShtbsuzNs2jlBn3KdKdXuCDtOn1Y1y0btnEFmyHc17AYxBr9WsVLVa9YyGAlr+XbWHE4wFwtv6Xc1vNgzBUd7wVdWPRh0hBNT+acl6NS1gtdX0adWPVi2gZtf4YdWbZU3gF9j8adWffmlJ2Fa6Xb3PncI2h/vjNLPTCWu8Arq/vLPLa13+GDb7vdPbQE8uW9rzFHnJ8T+MhLd4BkTzsrQvpj91Oo7p8GAAbIn3gETmDggQiqp2AFDDboYHIQbmDfhB3UZqEHvWVoxz0ckiDPhyCiI2IJ45RoQjYoqoDPiiMe5GKKDMUo40Y01mjSjWmEpOOONfXYwo9AsgDTkDGkZWSSBxQAADs=" parent="1" vertex="1">
          <mxGeometry x="300" y="1370" width="79.38" height="80" as="geometry" />
        </mxCell>
        <mxCell id="Dszgjll1nI4-ISgBh7Tw-1" value="&lt;font style=&quot;font-size: 13px;&quot;&gt;Target Group&lt;/font&gt;" style="text;html=1;align=center;verticalAlign=middle;resizable=0;points=[];autosize=1;strokeColor=none;fillColor=none;fontSize=13;" vertex="1" parent="1">
          <mxGeometry x="715" y="290" width="100" height="30" as="geometry" />
        </mxCell>
      </root>
    </mxGraphModel>
  </diagram>
</mxfile>
